<?xml version="1.0" encoding="utf-8" standalone="no"?>
<!DOCTYPE svg PUBLIC "-//W3C//DTD SVG 1.1//EN"
  "http://www.w3.org/Graphics/SVG/1.1/DTD/svg11.dtd">
<!-- Created with matplotlib (http://matplotlib.org/) -->
<svg height="288pt" version="1.1" viewBox="0 0 432 288" width="432pt" xmlns="http://www.w3.org/2000/svg" xmlns:xlink="http://www.w3.org/1999/xlink">
 <defs>
  <style type="text/css">
*{stroke-linecap:butt;stroke-linejoin:round;}
  </style>
 </defs>
 <g id="figure_1">
  <g id="patch_1">
   <path d="M 0 288 
L 432 288 
L 432 0 
L 0 0 
z
" style="fill:#ffffff;"/>
  </g>
  <g id="axes_1">
   <g id="patch_2">
    <path d="M 54 252 
L 388.8 252 
L 388.8 34.56 
L 54 34.56 
z
" style="fill:#ffffff;"/>
   </g>
   <g id="matplotlib.axis_1">
    <g id="xtick_1">
     <g id="line2d_1">
      <defs>
       <path d="M 0 0 
L 0 -3.5 
" id="ma28261e03e" style="stroke:#000000;stroke-width:0.8;"/>
      </defs>
      <g>
       <use style="stroke:#000000;stroke-width:0.8;" x="69.218182" xlink:href="#ma28261e03e" y="252"/>
      </g>
     </g>
     <g id="text_1">
      <text style="font-family:Arial;font-size:18px;font-style:normal;font-weight:normal;text-anchor:middle;" transform="rotate(-0, 69.218182, 268.384063)" x="69.218182" y="268.384063">0</text>
     </g>
    </g>
    <g id="xtick_2">
     <g id="line2d_2">
      <g>
       <use style="stroke:#000000;stroke-width:0.8;" x="130.090909" xlink:href="#ma28261e03e" y="252"/>
      </g>
     </g>
     <g id="text_2">
      <text style="font-family:Arial;font-size:18px;font-style:normal;font-weight:normal;text-anchor:middle;" transform="rotate(-0, 130.090909, 268.384063)" x="130.090909" y="268.384063">20</text>
     </g>
    </g>
    <g id="xtick_3">
     <g id="line2d_3">
      <g>
       <use style="stroke:#000000;stroke-width:0.8;" x="190.963636" xlink:href="#ma28261e03e" y="252"/>
      </g>
     </g>
     <g id="text_3">
      <text style="font-family:Arial;font-size:18px;font-style:normal;font-weight:normal;text-anchor:middle;" transform="rotate(-0, 190.963636, 268.384063)" x="190.963636" y="268.384063">40</text>
     </g>
    </g>
    <g id="xtick_4">
     <g id="line2d_4">
      <g>
       <use style="stroke:#000000;stroke-width:0.8;" x="251.836364" xlink:href="#ma28261e03e" y="252"/>
      </g>
     </g>
     <g id="text_4">
      <text style="font-family:Arial;font-size:18px;font-style:normal;font-weight:normal;text-anchor:middle;" transform="rotate(-0, 251.836364, 268.384063)" x="251.836364" y="268.384063">60</text>
     </g>
    </g>
    <g id="xtick_5">
     <g id="line2d_5">
      <g>
       <use style="stroke:#000000;stroke-width:0.8;" x="312.709091" xlink:href="#ma28261e03e" y="252"/>
      </g>
     </g>
     <g id="text_5">
      <text style="font-family:Arial;font-size:18px;font-style:normal;font-weight:normal;text-anchor:middle;" transform="rotate(-0, 312.709091, 268.384063)" x="312.709091" y="268.384063">80</text>
     </g>
    </g>
    <g id="xtick_6">
     <g id="line2d_6">
      <g>
       <use style="stroke:#000000;stroke-width:0.8;" x="373.581818" xlink:href="#ma28261e03e" y="252"/>
      </g>
     </g>
     <g id="text_6">
      <text style="font-family:Arial;font-size:18px;font-style:normal;font-weight:normal;text-anchor:middle;" transform="rotate(-0, 373.581818, 268.384063)" x="373.581818" y="268.384063">100</text>
     </g>
    </g>
    <g id="text_7">
     <text style="font-family:Arial;font-size:18px;font-style:normal;font-weight:normal;text-anchor:middle;" transform="rotate(-0, 221.4, 289.065)" x="221.4" y="289.065">Time (s)</text>
    </g>
   </g>
   <g id="matplotlib.axis_2">
    <g id="ytick_1">
     <g id="line2d_7">
      <defs>
       <path d="M 0 0 
L 3.5 0 
" id="mb6f42f7ed2" style="stroke:#000000;stroke-width:0.8;"/>
      </defs>
      <g>
       <use style="stroke:#000000;stroke-width:0.8;" x="54" xlink:href="#mb6f42f7ed2" y="242.116364"/>
      </g>
     </g>
     <g id="text_8">
      <text style="font-family:Arial;font-size:18px;font-style:normal;font-weight:normal;text-anchor:end;" transform="rotate(-0, 50.5, 248.558395)" x="50.5" y="248.558395">0</text>
     </g>
    </g>
    <g id="ytick_2">
     <g id="line2d_8">
      <g>
       <use style="stroke:#000000;stroke-width:0.8;" x="54" xlink:href="#mb6f42f7ed2" y="193.778007"/>
      </g>
     </g>
     <g id="text_9">
      <text style="font-family:Arial;font-size:18px;font-style:normal;font-weight:normal;text-anchor:end;" transform="rotate(-0, 50.5, 200.220038)" x="50.5" y="200.220038">20</text>
     </g>
    </g>
    <g id="ytick_3">
     <g id="line2d_9">
      <g>
       <use style="stroke:#000000;stroke-width:0.8;" x="54" xlink:href="#mb6f42f7ed2" y="145.439649"/>
      </g>
     </g>
     <g id="text_10">
      <text style="font-family:Arial;font-size:18px;font-style:normal;font-weight:normal;text-anchor:end;" transform="rotate(-0, 50.5, 151.881681)" x="50.5" y="151.881681">40</text>
     </g>
    </g>
    <g id="ytick_4">
     <g id="line2d_10">
      <g>
       <use style="stroke:#000000;stroke-width:0.8;" x="54" xlink:href="#mb6f42f7ed2" y="97.101292"/>
      </g>
     </g>
     <g id="text_11">
      <text style="font-family:Arial;font-size:18px;font-style:normal;font-weight:normal;text-anchor:end;" transform="rotate(-0, 50.5, 103.543324)" x="50.5" y="103.543324">60</text>
     </g>
    </g>
    <g id="ytick_5">
     <g id="line2d_11">
      <g>
       <use style="stroke:#000000;stroke-width:0.8;" x="54" xlink:href="#mb6f42f7ed2" y="48.762935"/>
      </g>
     </g>
     <g id="text_12">
      <text style="font-family:Arial;font-size:18px;font-style:normal;font-weight:normal;text-anchor:end;" transform="rotate(-0, 50.5, 55.204966)" x="50.5" y="55.204966">80</text>
     </g>
    </g>
    <g id="text_13">
     <text style="font-family:Arial;font-size:18px;font-style:normal;font-weight:normal;text-anchor:middle;" transform="rotate(-90, 22.903125, 143.28)" x="22.903125" y="143.28">% activation</text>
    </g>
   </g>
   <g id="line2d_12">
    <path clip-path="url(#p85189f5011)" d="M 69.218182 242.116364 
L 69.21899 242.116309 
L 69.219799 242.116215 
L 69.221417 242.115967 
L 69.224651 242.115256 
L 69.231121 242.1138 
L 69.236943 242.112413 
L 69.242765 242.111024 
L 69.248588 242.109646 
L 69.260233 242.106898 
L 69.271878 242.104153 
L 69.295167 242.098663 
L 69.318457 242.093174 
L 69.341747 242.087688 
L 69.365037 242.082203 
L 69.411616 242.071239 
L 69.458196 242.060283 
L 69.504775 242.049334 
L 69.551355 242.038393 
L 69.644514 242.016533 
L 69.737673 241.994702 
L 69.923991 241.951131 
L 70.110309 241.907678 
L 70.482945 241.821128 
L 70.855581 241.73505 
L 71.228217 241.649441 
L 71.600852 241.564299 
L 72.346124 241.395406 
L 73.091396 241.228348 
L 74.58194 240.899654 
L 75.92343 240.609888 
L 77.264919 240.325729 
L 78.606409 240.047038 
L 79.947898 239.773677 
L 81.289388 239.505501 
L 83.972367 238.984105 
L 86.655346 238.481612 
L 89.338325 237.996718 
L 92.021304 237.528122 
L 94.704283 237.074448 
L 97.387262 236.634409 
L 100.070241 236.206547 
L 102.75322 235.789572 
L 105.436199 235.382248 
L 108.119178 234.983236 
L 110.802157 234.591325 
L 113.485136 234.205368 
L 116.168115 233.824214 
L 118.851095 233.446809 
L 121.534074 233.072205 
L 123.553657 232.791778 
L 125.57324 232.512067 
L 127.390865 232.260776 
L 129.20849 232.00995 
L 130.844352 231.784628 
L 132.480214 231.559813 
L 133.739532 231.387162 
L 134.998849 231.214865 
L 136.258167 231.042888 
L 137.517485 230.871206 
L 138.776802 230.699763 
L 139.703714 230.573661 
L 140.630625 230.447611 
L 141.557536 230.321608 
L 142.484447 230.195604 
L 143.318667 230.082172 
L 144.152887 229.968703 
L 144.987107 229.855175 
L 145.821327 229.741569 
L 146.655547 229.627867 
L 147.489767 229.514051 
L 148.323987 229.400104 
L 149.158207 229.286014 
L 150.308236 229.128466 
L 151.458265 228.970581 
L 152.608293 228.812315 
L 153.758322 228.653634 
L 154.908351 228.494501 
L 157.208409 228.174828 
L 159.508466 227.853105 
L 161.808524 227.529194 
L 164.108581 227.20303 
L 166.408639 226.874591 
L 168.708696 226.543917 
L 171.008754 226.211101 
L 173.308812 225.876313 
L 175.608869 225.539806 
L 177.908927 225.201878 
L 180.208984 224.862918 
L 182.509042 224.523385 
L 187.109157 223.844854 
L 191.094965 223.26099 
L 195.080772 222.685249 
L 199.06658 222.122739 
L 203.052387 221.579175 
L 207.038195 221.060525 
L 211.024002 220.573001 
L 215.00981 220.123136 
L 218.231486 219.790793 
L 221.453161 219.488908 
L 224.674837 219.220752 
L 227.896513 218.988309 
L 234.339864 218.632531 
L 240.783215 218.422281 
L 246.582231 218.354829 
L 252.381248 218.38932 
L 258.180264 218.510836 
L 263.97928 218.700657 
L 275.577312 219.217216 
L 286.015541 219.744382 
L 296.453771 220.242117 
L 306.892 220.684623 
L 317.330229 221.046651 
L 327.768458 221.333956 
L 338.206687 221.554946 
L 347.601093 221.706223 
L 355.984223 221.809398 
L 364.367352 221.876926 
L 373.581818 221.930843 
" style="fill:none;stroke:#0066ff;stroke-linecap:square;stroke-width:3;"/>
   </g>
   <g id="line2d_13">
    <path clip-path="url(#p85189f5011)" d="M 69.218182 242.116364 
L 69.21899 242.116364 
L 69.219799 242.116364 
L 69.221417 242.116364 
L 69.224651 242.116364 
L 69.231121 242.116364 
L 69.236943 242.116364 
L 69.242765 242.116364 
L 69.248588 242.116364 
L 69.260233 242.116364 
L 69.271878 242.116364 
L 69.295167 242.116364 
L 69.318457 242.116364 
L 69.341747 242.116364 
L 69.365037 242.116364 
L 69.411616 242.116364 
L 69.458196 242.116364 
L 69.504775 242.116364 
L 69.551355 242.116364 
L 69.644514 242.116364 
L 69.737673 242.116364 
L 69.923991 242.116363 
L 70.110309 242.116363 
L 70.482945 242.11636 
L 70.855581 242.116353 
L 71.228217 242.11634 
L 71.600852 242.116319 
L 72.346124 242.116236 
L 73.091396 242.116075 
L 74.58194 242.115339 
L 75.92343 242.113954 
L 77.264919 242.111547 
L 78.606409 242.107756 
L 79.947898 242.102189 
L 81.289388 242.09443 
L 83.972367 242.070608 
L 86.655346 242.032727 
L 89.338325 241.97714 
L 92.021304 241.900269 
L 94.704283 241.798572 
L 97.387262 241.668589 
L 100.070241 241.506825 
L 102.75322 241.309806 
L 105.436199 241.073976 
L 108.119178 240.795341 
L 110.802157 240.469389 
L 113.485136 240.090332 
L 116.168115 239.649886 
L 118.851095 239.134032 
L 121.534074 238.518273 
L 123.553657 237.959035 
L 125.57324 237.277507 
L 127.390865 236.506314 
L 129.20849 235.515562 
L 130.844352 234.386558 
L 132.480214 233.004873 
L 133.739532 231.795443 
L 134.998849 230.490531 
L 136.258167 229.112758 
L 137.517485 227.67765 
L 138.776802 226.212851 
L 139.703714 225.107292 
L 140.630625 223.979374 
L 141.557536 222.847913 
L 142.484447 221.697667 
L 143.318667 220.643061 
L 144.152887 219.582495 
L 144.987107 218.509987 
L 145.821327 217.425631 
L 146.655547 216.33168 
L 147.489767 215.225631 
L 148.323987 214.110585 
L 149.158207 212.983205 
L 150.308236 211.414028 
L 151.458265 209.826413 
L 152.608293 208.219877 
L 153.758322 206.595101 
L 154.908351 204.953014 
L 157.208409 201.617654 
L 159.508466 198.218124 
L 161.808524 194.759232 
L 164.108581 191.246338 
L 166.408639 187.685027 
L 168.708696 184.081551 
L 171.008754 180.442082 
L 173.308812 176.773422 
L 175.608869 173.083184 
L 177.908927 169.378123 
L 180.208984 165.665907 
L 182.509042 161.954212 
L 187.109157 154.563496 
L 191.094965 148.234844 
L 195.080772 142.01842 
L 199.06658 135.953736 
L 203.052387 130.078454 
L 207.038195 124.427743 
L 211.024002 119.032971 
L 215.00981 113.92751 
L 218.231486 110.022426 
L 221.453161 106.326573 
L 224.674837 102.846032 
L 227.896513 99.585403 
L 234.339864 93.730507 
L 240.783215 88.746902 
L 246.582231 84.978028 
L 252.381248 81.838974 
L 258.180264 79.276682 
L 263.97928 77.229605 
L 275.577312 74.453021 
L 286.015541 73.10876 
L 296.453771 72.505147 
L 306.892 72.386091 
L 317.330229 72.552826 
L 327.768458 72.874589 
L 338.206687 73.267708 
L 347.601093 73.635543 
L 355.984223 73.954925 
L 364.367352 74.23895 
L 373.581818 74.512128 
" style="fill:none;stroke:#00aa44;stroke-linecap:square;stroke-width:3;"/>
   </g>
   <g id="line2d_14">
    <path clip-path="url(#p85189f5011)" d="M 69.218182 242.116364 
L 69.21899 242.116364 
L 69.219799 242.116364 
L 69.221417 242.116364 
L 69.224651 242.116364 
L 69.231121 242.116364 
L 69.236943 242.116364 
L 69.242765 242.116364 
L 69.248588 242.116364 
L 69.260233 242.116364 
L 69.271878 242.116364 
L 69.295167 242.116363 
L 69.318457 242.116363 
L 69.341747 242.116363 
L 69.365037 242.116363 
L 69.411616 242.116363 
L 69.458196 242.116363 
L 69.504775 242.116363 
L 69.551355 242.116363 
L 69.644514 242.116363 
L 69.737673 242.116363 
L 69.923991 242.116363 
L 70.110309 242.116363 
L 70.482945 242.116363 
L 70.855581 242.116363 
L 71.228217 242.116363 
L 71.600852 242.116363 
L 72.346124 242.116363 
L 73.091396 242.116362 
L 74.58194 242.116361 
L 75.92343 242.116358 
L 77.264919 242.116349 
L 78.606409 242.116325 
L 79.947898 242.116269 
L 81.289388 242.11615 
L 83.972367 242.115476 
L 86.655346 242.113405 
L 89.338325 242.108143 
L 92.021304 242.096348 
L 94.704283 242.071867 
L 97.387262 242.025138 
L 100.070241 241.94012 
L 102.75322 241.791394 
L 105.436199 241.53803 
L 108.119178 241.115001 
L 110.802157 240.415782 
L 113.485136 239.264829 
L 116.168115 237.364267 
L 118.851095 234.199322 
L 121.534074 228.859146 
L 123.553657 222.517014 
L 125.57324 213.240228 
L 127.390865 201.553248 
L 129.20849 186.387418 
L 130.844352 170.406039 
L 132.480214 153.765038 
L 133.739532 141.708297 
L 134.998849 130.978596 
L 136.258167 121.667009 
L 137.517485 113.788496 
L 138.776802 107.039538 
L 139.703714 102.656139 
L 140.630625 98.782629 
L 141.557536 95.274432 
L 142.484447 92.080881 
L 143.318667 89.476187 
L 144.152887 87.093464 
L 144.987107 84.891881 
L 145.821327 82.863192 
L 146.655547 80.974118 
L 147.489767 79.224358 
L 148.323987 77.592609 
L 149.158207 76.074182 
L 150.308236 74.142927 
L 151.458265 72.377614 
L 152.608293 70.754513 
L 153.758322 69.259315 
L 154.908351 67.879962 
L 157.208409 65.421041 
L 159.508466 63.296993 
L 161.808524 61.447014 
L 164.108581 59.822788 
L 166.408639 58.389812 
L 168.708696 57.115192 
L 171.008754 55.976739 
L 173.308812 54.960709 
L 175.608869 54.047906 
L 177.908927 53.223172 
L 180.208984 52.477812 
L 182.509042 51.799131 
L 187.109157 50.622228 
L 191.094965 49.76112 
L 195.080772 49.022038 
L 199.06658 48.383309 
L 203.052387 47.832071 
L 207.038195 47.350667 
L 211.024002 46.939461 
L 215.00981 46.573964 
L 218.231486 46.316232 
L 221.453161 46.086582 
L 224.674837 45.880881 
L 227.896513 45.697404 
L 234.339864 45.389903 
L 240.783215 45.144144 
L 246.582231 44.96976 
L 252.381248 44.830678 
L 258.180264 44.721085 
L 263.97928 44.635994 
L 275.577312 44.524142 
L 286.015541 44.471433 
L 296.453771 44.449257 
L 306.892 44.443636 
L 317.330229 44.452247 
L 327.768458 44.459634 
L 338.206687 44.484496 
L 347.601093 44.491313 
L 355.984223 44.503419 
L 364.367352 44.515777 
L 373.581818 44.526589 
" style="fill:none;stroke:#ff2a2a;stroke-linecap:square;stroke-width:3;"/>
   </g>
   <g id="patch_3">
    <path d="M 54 252 
L 54 34.56 
" style="fill:none;stroke:#000000;stroke-linecap:square;stroke-linejoin:miter;stroke-width:0.8;"/>
   </g>
   <g id="patch_4">
    <path d="M 388.8 252 
L 388.8 34.56 
" style="fill:none;stroke:#000000;stroke-linecap:square;stroke-linejoin:miter;stroke-width:0.8;"/>
   </g>
   <g id="patch_5">
    <path d="M 54 252 
L 388.8 252 
" style="fill:none;stroke:#000000;stroke-linecap:square;stroke-linejoin:miter;stroke-width:0.8;"/>
   </g>
   <g id="patch_6">
    <path d="M 54 34.56 
L 388.8 34.56 
" style="fill:none;stroke:#000000;stroke-linecap:square;stroke-linejoin:miter;stroke-width:0.8;"/>
   </g>
   <g id="legend_1">
    <g id="line2d_15">
     <path d="M 278.64625 122.195781 
L 306.64625 122.195781 
" style="fill:none;stroke:#0066ff;stroke-linecap:square;stroke-width:3;"/>
    </g>
    <g id="line2d_16"/>
    <g id="text_14">
     <text style="font-family:Arial;font-size:14px;font-style:normal;font-weight:normal;text-anchor:start;" transform="rotate(-0, 317.84625, 127.095781)" x="317.84625" y="127.095781">MAPKKK</text>
    </g>
    <g id="line2d_17">
     <path d="M 278.64625 141.999219 
L 306.64625 141.999219 
" style="fill:none;stroke:#00aa44;stroke-linecap:square;stroke-width:3;"/>
    </g>
    <g id="line2d_18"/>
    <g id="text_15">
     <text style="font-family:Arial;font-size:14px;font-style:normal;font-weight:normal;text-anchor:start;" transform="rotate(-0, 317.84625, 146.899219)" x="317.84625" y="146.899219">MAPKK</text>
    </g>
    <g id="line2d_19">
     <path d="M 278.64625 161.802656 
L 306.64625 161.802656 
" style="fill:none;stroke:#ff2a2a;stroke-linecap:square;stroke-width:3;"/>
    </g>
    <g id="line2d_20"/>
    <g id="text_16">
     <text style="font-family:Arial;font-size:14px;font-style:normal;font-weight:normal;text-anchor:start;" transform="rotate(-0, 317.84625, 166.702656)" x="317.84625" y="166.702656">MAPK</text>
    </g>
   </g>
  </g>
 </g>
 <defs>
  <clipPath id="p85189f5011">
   <rect height="217.44" width="334.8" x="54" y="34.56"/>
  </clipPath>
 </defs>
</svg>
