<?xml version="1.0" encoding="utf-8" standalone="no"?>
<!DOCTYPE svg PUBLIC "-//W3C//DTD SVG 1.1//EN"
  "http://www.w3.org/Graphics/SVG/1.1/DTD/svg11.dtd">
<!-- Created with matplotlib (http://matplotlib.org/) -->
<svg height="288pt" version="1.1" viewBox="0 0 432 288" width="432pt" xmlns="http://www.w3.org/2000/svg" xmlns:xlink="http://www.w3.org/1999/xlink">
 <defs>
  <style type="text/css">
*{stroke-linecap:butt;stroke-linejoin:round;}
  </style>
 </defs>
 <g id="figure_1">
  <g id="patch_1">
   <path d="M 0 288 
L 432 288 
L 432 0 
L 0 0 
z
" style="fill:#ffffff;"/>
  </g>
  <g id="axes_1">
   <g id="patch_2">
    <path d="M 54 252 
L 388.8 252 
L 388.8 34.56 
L 54 34.56 
z
" style="fill:#ffffff;"/>
   </g>
   <g id="matplotlib.axis_1">
    <g id="xtick_1">
     <g id="line2d_1">
      <defs>
       <path d="M 0 0 
L 0 -3.5 
" id="m26c67e6f9a" style="stroke:#000000;stroke-width:0.8;"/>
      </defs>
      <g>
       <use style="stroke:#000000;stroke-width:0.8;" x="119.945455" xlink:href="#m26c67e6f9a" y="252"/>
      </g>
     </g>
     <g id="text_1">
      <!-- $\mathdefault{10^{-6}}$ -->
      <g transform="translate(102.125455 274.0625)">
       <text>
        <tspan style="font-family:Arial;font-size:18px;font-style:regular;font-weight:regular;" x="0 10.010742" y="-0.39887500000000387">10</tspan>
        <tspan style="font-family:Arial;font-size:12.6px;font-style:regular;font-weight:regular;" x="20.335106 27.693309" y="-12.943750000000003">−6</tspan>
       </text>
      </g>
     </g>
    </g>
    <g id="xtick_2">
     <g id="line2d_2">
      <g>
       <use style="stroke:#000000;stroke-width:0.8;" x="221.4" xlink:href="#m26c67e6f9a" y="252"/>
      </g>
     </g>
     <g id="text_2">
      <!-- $\mathdefault{10^{-4}}$ -->
      <g transform="translate(203.58 273.8825)">
       <text>
        <tspan style="font-family:Arial;font-size:18px;font-style:regular;font-weight:regular;" x="0 10.010742" y="-0.43168750000000244">10</tspan>
        <tspan style="font-family:Arial;font-size:12.6px;font-style:regular;font-weight:regular;" x="20.335106 27.693309" y="-12.976562500000002">−4</tspan>
       </text>
      </g>
     </g>
    </g>
    <g id="xtick_3">
     <g id="line2d_3">
      <g>
       <use style="stroke:#000000;stroke-width:0.8;" x="322.854545" xlink:href="#m26c67e6f9a" y="252"/>
      </g>
     </g>
     <g id="text_3">
      <!-- $\mathdefault{10^{-2}}$ -->
      <g transform="translate(305.034545 274.0625)">
       <text>
        <tspan style="font-family:Arial;font-size:18px;font-style:regular;font-weight:regular;" x="0 10.010742" y="-0.39887500000000387">10</tspan>
        <tspan style="font-family:Arial;font-size:12.6px;font-style:regular;font-weight:regular;" x="20.335106 27.693309" y="-12.943750000000003">−2</tspan>
       </text>
      </g>
     </g>
    </g>
    <g id="text_4">
     <text style="font-family:Arial;font-size:18px;font-style:normal;font-weight:normal;text-anchor:middle;" transform="rotate(-0, 221.4, 294.743438)" x="221.4" y="294.743438">Input (MKKKK) concentration (μM)</text>
    </g>
   </g>
   <g id="matplotlib.axis_2">
    <g id="ytick_1">
     <g id="line2d_4">
      <defs>
       <path d="M 0 0 
L 3.5 0 
" id="m87709bbbcb" style="stroke:#000000;stroke-width:0.8;"/>
      </defs>
      <g>
       <use style="stroke:#000000;stroke-width:0.8;" x="54" xlink:href="#m87709bbbcb" y="242.116376"/>
      </g>
     </g>
     <g id="text_5">
      <text style="font-family:Arial;font-size:18px;font-style:normal;font-weight:normal;text-anchor:end;" transform="rotate(-0, 50.5, 248.558407)" x="50.5" y="248.558407">0.0</text>
     </g>
    </g>
    <g id="ytick_2">
     <g id="line2d_5">
      <g>
       <use style="stroke:#000000;stroke-width:0.8;" x="54" xlink:href="#m87709bbbcb" y="202.581828"/>
      </g>
     </g>
     <g id="text_6">
      <text style="font-family:Arial;font-size:18px;font-style:normal;font-weight:normal;text-anchor:end;" transform="rotate(-0, 50.5, 209.023859)" x="50.5" y="209.023859">0.2</text>
     </g>
    </g>
    <g id="ytick_3">
     <g id="line2d_6">
      <g>
       <use style="stroke:#000000;stroke-width:0.8;" x="54" xlink:href="#m87709bbbcb" y="163.04728"/>
      </g>
     </g>
     <g id="text_7">
      <text style="font-family:Arial;font-size:18px;font-style:normal;font-weight:normal;text-anchor:end;" transform="rotate(-0, 50.5, 169.489311)" x="50.5" y="169.489311">0.4</text>
     </g>
    </g>
    <g id="ytick_4">
     <g id="line2d_7">
      <g>
       <use style="stroke:#000000;stroke-width:0.8;" x="54" xlink:href="#m87709bbbcb" y="123.512732"/>
      </g>
     </g>
     <g id="text_8">
      <text style="font-family:Arial;font-size:18px;font-style:normal;font-weight:normal;text-anchor:end;" transform="rotate(-0, 50.5, 129.954763)" x="50.5" y="129.954763">0.6</text>
     </g>
    </g>
    <g id="ytick_5">
     <g id="line2d_8">
      <g>
       <use style="stroke:#000000;stroke-width:0.8;" x="54" xlink:href="#m87709bbbcb" y="83.978184"/>
      </g>
     </g>
     <g id="text_9">
      <text style="font-family:Arial;font-size:18px;font-style:normal;font-weight:normal;text-anchor:end;" transform="rotate(-0, 50.5, 90.420215)" x="50.5" y="90.420215">0.8</text>
     </g>
    </g>
    <g id="ytick_6">
     <g id="line2d_9">
      <g>
       <use style="stroke:#000000;stroke-width:0.8;" x="54" xlink:href="#m87709bbbcb" y="44.443636"/>
      </g>
     </g>
     <g id="text_10">
      <text style="font-family:Arial;font-size:18px;font-style:normal;font-weight:normal;text-anchor:end;" transform="rotate(-0, 50.5, 50.885668)" x="50.5" y="50.885668">1.0</text>
     </g>
    </g>
    <g id="text_11">
     <text style="font-family:Arial;font-size:18px;font-style:normal;font-weight:normal;text-anchor:middle;" transform="rotate(-90, 17.9025, 143.28)" x="17.9025" y="143.28">Normalised concentration</text>
    </g>
   </g>
   <g id="line2d_10">
    <path clip-path="url(#pd4f3f24193)" d="M 69.218182 242.032119 
L 72.292562 242.0215 
L 75.366942 242.009297 
L 78.441322 241.995276 
L 81.515702 241.979166 
L 84.590083 241.960657 
L 87.664463 241.939397 
L 90.738843 241.914978 
L 93.813223 241.886937 
L 96.887603 241.85474 
L 99.961983 241.817781 
L 103.036364 241.775363 
L 106.110744 241.726696 
L 109.185124 241.670873 
L 112.259504 241.606867 
L 115.333884 241.533505 
L 118.408264 241.449456 
L 121.482645 241.353213 
L 124.557025 241.243064 
L 127.631405 241.117074 
L 130.705785 240.973054 
L 133.780165 240.808526 
L 136.854545 240.620684 
L 139.928926 240.406344 
L 143.003306 240.161935 
L 146.077686 239.883592 
L 149.152066 239.56717 
L 152.226446 239.207679 
L 155.300826 238.798917 
L 158.375207 238.333251 
L 161.449587 237.801409 
L 164.523967 237.192716 
L 167.598347 236.495631 
L 170.672727 235.697971 
L 173.747107 234.786684 
L 176.821488 233.747544 
L 179.895868 232.564924 
L 182.970248 231.22175 
L 186.044628 229.699485 
L 189.119008 227.978239 
L 192.193388 226.03693 
L 195.267769 223.853561 
L 198.342149 221.405602 
L 201.416529 218.67051 
L 204.490909 215.6264 
L 207.565289 212.252875 
L 210.639669 208.532018 
L 213.71405 204.449522 
L 216.78843 199.995928 
L 219.86281 195.167907 
L 222.93719 189.969506 
L 226.01157 184.41324 
L 229.08595 178.520918 
L 232.160331 172.324077 
L 235.234711 165.863897 
L 238.309091 159.190542 
L 241.383471 152.361881 
L 244.457851 145.44164 
L 247.532231 138.497099 
L 250.606612 131.596488 
L 253.680992 124.806315 
L 256.755372 118.188828 
L 259.829752 111.799828 
L 262.904132 105.686977 
L 265.978512 99.888701 
L 269.052893 94.433694 
L 272.127273 89.341005 
L 275.201653 84.620587 
L 278.276033 80.27422 
L 281.350413 76.296654 
L 284.424793 72.676882 
L 287.499174 69.399411 
L 290.573554 66.445474 
L 293.647934 63.794124 
L 296.722314 61.423177 
L 299.796694 59.309993 
L 302.871074 57.432101 
L 305.945455 55.767672 
L 309.019835 54.295864 
L 312.094215 52.997055 
L 315.168595 51.852986 
L 318.242975 50.84683 
L 321.317355 49.963205 
L 324.391736 49.188148 
L 327.466116 48.509061 
L 330.540496 47.914629 
L 333.614876 47.394739 
L 336.689256 46.940383 
L 339.763636 46.543565 
L 342.838017 46.197203 
L 345.912397 45.895046 
L 348.986777 45.631582 
L 352.061157 45.401964 
L 355.135537 45.201934 
L 358.209917 45.02776 
L 361.284298 44.876171 
L 364.358678 44.744307 
L 367.433058 44.62967 
L 370.507438 44.53008 
L 373.581818 44.443636 
" style="fill:none;stroke:#0066ff;stroke-linecap:square;stroke-width:3;"/>
   </g>
   <g id="line2d_11">
    <path clip-path="url(#pd4f3f24193)" d="M 69.218182 242.112824 
L 72.292562 242.111872 
L 75.366942 242.110634 
L 78.441322 242.109019 
L 81.515702 242.106906 
L 84.590083 242.104132 
L 87.664463 242.100481 
L 90.738843 242.095664 
L 93.813223 242.089287 
L 96.887603 242.080824 
L 99.961983 242.069557 
L 103.036364 242.05451 
L 106.110744 242.034347 
L 109.185124 242.007233 
L 112.259504 241.970629 
L 115.333884 241.921 
L 118.408264 241.853402 
L 121.482645 241.760866 
L 124.557025 241.633509 
L 127.631405 241.45724 
L 130.705785 241.211885 
L 133.780165 240.868551 
L 136.854545 240.385854 
L 139.928926 239.704419 
L 143.003306 238.735462 
L 146.077686 237.327418 
L 149.152066 235.21116 
L 152.226446 231.989989 
L 155.300826 227.146044 
L 158.375207 220.120308 
L 161.449587 210.586106 
L 164.523967 198.771759 
L 167.598347 185.456655 
L 170.672727 171.598011 
L 173.747107 157.982197 
L 176.821488 145.113523 
L 179.895868 133.256675 
L 182.970248 122.51418 
L 186.044628 112.890909 
L 189.119008 104.337219 
L 192.193388 96.776018 
L 195.267769 90.118641 
L 198.342149 84.274117 
L 201.416529 79.154343 
L 204.490909 74.676809 
L 207.565289 70.765864 
L 210.639669 67.353119 
L 213.71405 64.377357 
L 216.78843 61.784166 
L 219.86281 59.525431 
L 222.93719 57.558763 
L 226.01157 55.846927 
L 229.08595 54.357288 
L 232.160331 53.061283 
L 235.234711 51.93395 
L 238.309091 50.953492 
L 241.383471 50.10089 
L 244.457851 49.359558 
L 247.532231 48.715041 
L 250.606612 48.154744 
L 253.680992 47.667694 
L 256.755372 47.244341 
L 259.829752 46.876367 
L 262.904132 46.556538 
L 265.978512 46.278558 
L 269.052893 46.036951 
L 272.127273 45.826955 
L 275.201653 45.644431 
L 278.276033 45.485782 
L 281.350413 45.347879 
L 284.424793 45.228005 
L 287.499174 45.1238 
L 290.573554 45.033212 
L 293.647934 44.954457 
L 296.722314 44.885989 
L 299.796694 44.826461 
L 302.871074 44.774703 
L 305.945455 44.729701 
L 309.019835 44.690571 
L 312.094215 44.656546 
L 315.168595 44.626959 
L 318.242975 44.601232 
L 321.317355 44.578859 
L 324.391736 44.559405 
L 327.466116 44.542487 
L 330.540496 44.527775 
L 333.614876 44.514982 
L 336.689256 44.503857 
L 339.763636 44.494183 
L 342.838017 44.485771 
L 345.912397 44.478457 
L 348.986777 44.472098 
L 352.061157 44.46657 
L 355.135537 44.461765 
L 358.209917 44.457588 
L 361.284298 44.45396 
L 364.358678 44.450808 
L 367.433058 44.448071 
L 370.507438 44.445696 
L 373.581818 44.443636 
" style="fill:none;stroke:#00aa44;stroke-linecap:square;stroke-width:3;"/>
   </g>
   <g id="line2d_12">
    <path clip-path="url(#pd4f3f24193)" d="M 69.218182 242.116364 
L 72.292562 242.116359 
L 75.366942 242.116351 
L 78.441322 242.116338 
L 81.515702 242.116317 
L 84.590083 242.116283 
L 87.664463 242.116227 
L 90.738843 242.116132 
L 93.813223 242.11597 
L 96.887603 242.115691 
L 99.961983 242.115205 
L 103.036364 242.11435 
L 106.110744 242.112831 
L 109.185124 242.110103 
L 112.259504 242.105141 
L 115.333884 242.095994 
L 118.408264 242.078857 
L 121.482645 242.046134 
L 124.557025 241.982156 
L 127.631405 241.853327 
L 130.705785 241.583933 
L 133.780165 240.992444 
L 136.854545 239.609437 
L 139.928926 236.1244 
L 143.003306 226.864146 
L 146.077686 204.789203 
L 149.152066 169.658641 
L 152.226446 133.71519 
L 155.300826 104.995912 
L 158.375207 84.623836 
L 161.449587 71.127197 
L 164.523967 62.525644 
L 167.598347 57.095499 
L 170.672727 53.610583 
L 173.747107 51.301608 
L 176.821488 49.714491 
L 179.895868 48.58445 
L 182.970248 47.754434 
L 186.044628 47.128451 
L 189.119008 46.645778 
L 192.193388 46.266685 
L 195.267769 45.96434 
L 198.342149 45.720097 
L 201.416529 45.52066 
L 204.490909 45.356334 
L 207.565289 45.219899 
L 210.639669 45.105888 
L 213.71405 45.010089 
L 216.78843 44.929216 
L 219.86281 44.860668 
L 222.93719 44.802367 
L 226.01157 44.752637 
L 229.08595 44.710109 
L 232.160331 44.673662 
L 235.234711 44.642368 
L 238.309091 44.615455 
L 241.383471 44.592279 
L 244.457851 44.572297 
L 247.532231 44.55505 
L 250.606612 44.540152 
L 253.680992 44.527272 
L 256.755372 44.516129 
L 259.829752 44.506484 
L 262.904132 44.498131 
L 265.978512 44.490893 
L 269.052893 44.484619 
L 272.127273 44.479179 
L 275.201653 44.47446 
L 278.276033 44.470366 
L 281.350413 44.466812 
L 284.424793 44.463728 
L 287.499174 44.461049 
L 290.573554 44.458723 
L 293.647934 44.456702 
L 296.722314 44.454947 
L 299.796694 44.453422 
L 302.871074 44.452097 
L 305.945455 44.450945 
L 309.019835 44.449944 
L 312.094215 44.449074 
L 315.168595 44.448318 
L 318.242975 44.44766 
L 321.317355 44.447088 
L 324.391736 44.446592 
L 327.466116 44.446159 
L 330.540496 44.445784 
L 333.614876 44.445457 
L 336.689256 44.445173 
L 339.763636 44.444926 
L 342.838017 44.444712 
L 345.912397 44.444525 
L 348.986777 44.444363 
L 352.061157 44.444222 
L 355.135537 44.444099 
L 358.209917 44.443992 
L 361.284298 44.4439 
L 364.358678 44.443819 
L 367.433058 44.443749 
L 370.507438 44.443689 
L 373.581818 44.443636 
" style="fill:none;stroke:#ff2a2a;stroke-linecap:square;stroke-width:3;"/>
   </g>
   <g id="line2d_13">
    <path clip-path="url(#pd4f3f24193)" d="M 69.218182 242.032119 
L 72.292562 242.0215 
L 75.366942 242.009297 
L 78.441322 241.995276 
L 81.515702 241.979166 
L 84.590083 241.960657 
L 87.664463 241.939397 
L 90.738843 241.914978 
L 93.813223 241.886937 
L 96.887603 241.85474 
L 99.961983 241.81778 
L 103.036364 241.775363 
L 106.110744 241.726696 
L 109.185124 241.670873 
L 112.259504 241.606867 
L 115.333884 241.533505 
L 118.408264 241.449456 
L 121.482645 241.353213 
L 124.557025 241.243064 
L 127.631405 241.117074 
L 130.705785 240.973054 
L 133.780165 240.808526 
L 136.854545 240.620684 
L 139.928926 240.406344 
L 143.003306 240.161935 
L 146.077686 239.883592 
L 149.152066 239.56717 
L 152.226446 239.207679 
L 155.300826 238.798917 
L 158.375207 238.333251 
L 161.449587 237.801409 
L 164.523967 237.192716 
L 167.598347 236.495631 
L 170.672727 235.69797 
L 173.747107 234.786684 
L 176.821488 233.747542 
L 179.895868 232.564924 
L 182.970248 231.22175 
L 186.044628 229.699485 
L 189.119008 227.978239 
L 192.193388 226.03693 
L 195.267769 223.853561 
L 198.342149 221.405602 
L 201.416529 218.67051 
L 204.490909 215.6264 
L 207.565289 212.252875 
L 210.639669 208.532018 
L 213.71405 204.449522 
L 216.78843 199.995928 
L 219.86281 195.167907 
L 222.93719 189.969506 
L 226.01157 184.41324 
L 229.08595 178.520918 
L 232.160331 172.324077 
L 235.234711 165.863897 
L 238.309091 159.190542 
L 241.383471 152.361881 
L 244.457851 145.44164 
L 247.532231 138.497099 
L 250.606612 131.596488 
L 253.680992 124.806315 
L 256.755372 118.188828 
L 259.829752 111.799828 
L 262.904132 105.686977 
L 265.978512 99.888701 
L 269.052893 94.433694 
L 272.127273 89.341005 
L 275.201653 84.620587 
L 278.276033 80.27422 
L 281.350413 76.296654 
L 284.424793 72.676882 
L 287.499174 69.399411 
L 290.573554 66.445474 
L 293.647934 63.794124 
L 296.722314 61.423177 
L 299.796694 59.309993 
L 302.871074 57.432101 
L 305.945455 55.767672 
L 309.019835 54.295864 
L 312.094215 52.997055 
L 315.168595 51.852986 
L 318.242975 50.84683 
L 321.317355 49.963205 
L 324.391736 49.188148 
L 327.466116 48.509061 
L 330.540496 47.914629 
L 333.614876 47.394739 
L 336.689256 46.940383 
L 339.763636 46.543565 
L 342.838017 46.197203 
L 345.912397 45.895046 
L 348.986777 45.631582 
L 352.061157 45.401964 
L 355.135537 45.201934 
L 358.209917 45.02776 
L 361.284298 44.876171 
L 364.358678 44.744307 
L 367.433058 44.62967 
L 370.507438 44.53008 
L 373.581818 44.443636 
" style="fill:none;stroke:#000000;stroke-dasharray:15,15;stroke-dashoffset:0;stroke-width:3;"/>
   </g>
   <g id="line2d_14">
    <path clip-path="url(#pd4f3f24193)" d="M 69.218182 242.112824 
L 72.292562 242.111872 
L 75.366942 242.110634 
L 78.441322 242.109019 
L 81.515702 242.106906 
L 84.590083 242.104132 
L 87.664463 242.100481 
L 90.738843 242.095664 
L 93.813223 242.089287 
L 96.887603 242.080824 
L 99.961983 242.069557 
L 103.036364 242.05451 
L 106.110744 242.034347 
L 109.185124 242.007233 
L 112.259504 241.970628 
L 115.333884 241.921 
L 118.408264 241.853402 
L 121.482645 241.760866 
L 124.557025 241.633509 
L 127.631405 241.45724 
L 130.705785 241.211889 
L 133.780165 240.868551 
L 136.854545 240.385853 
L 139.928926 239.70442 
L 143.003306 238.735464 
L 146.077686 237.32742 
L 149.152066 235.211164 
L 152.226446 231.98999 
L 155.300826 227.146034 
L 158.375207 220.120308 
L 161.449587 210.586109 
L 164.523967 198.771751 
L 167.598347 185.456636 
L 170.672727 171.598042 
L 173.747107 157.982189 
L 176.821488 145.113519 
L 179.895868 133.256675 
L 182.970248 122.514202 
L 186.044628 112.890909 
L 189.119008 104.337219 
L 192.193388 96.776018 
L 195.267769 90.118641 
L 198.342149 84.274117 
L 201.416529 79.154343 
L 204.490909 74.67681 
L 207.565289 70.765864 
L 210.639669 67.353119 
L 213.71405 64.377357 
L 216.78843 61.784166 
L 219.86281 59.525431 
L 222.93719 57.558763 
L 226.01157 55.846927 
L 229.08595 54.357288 
L 232.160331 53.061283 
L 235.234711 51.93395 
L 238.309091 50.953492 
L 241.383471 50.10089 
L 244.457851 49.359558 
L 247.532231 48.715041 
L 250.606612 48.154744 
L 253.680992 47.667694 
L 256.755372 47.244341 
L 259.829752 46.876367 
L 262.904132 46.556538 
L 265.978512 46.278558 
L 269.052893 46.036951 
L 272.127273 45.826955 
L 275.201653 45.644431 
L 278.276033 45.485782 
L 281.350413 45.347879 
L 284.424793 45.228005 
L 287.499174 45.1238 
L 290.573554 45.033212 
L 293.647934 44.954457 
L 296.722314 44.885989 
L 299.796694 44.826461 
L 302.871074 44.774703 
L 305.945455 44.729701 
L 309.019835 44.690571 
L 312.094215 44.656546 
L 315.168595 44.626959 
L 318.242975 44.601232 
L 321.317355 44.578859 
L 324.391736 44.559405 
L 327.466116 44.542487 
L 330.540496 44.527775 
L 333.614876 44.514982 
L 336.689256 44.503857 
L 339.763636 44.494183 
L 342.838017 44.485771 
L 345.912397 44.478457 
L 348.986777 44.472098 
L 352.061157 44.46657 
L 355.135537 44.461765 
L 358.209917 44.457588 
L 361.284298 44.45396 
L 364.358678 44.450808 
L 367.433058 44.448071 
L 370.507438 44.445696 
L 373.581818 44.443636 
" style="fill:none;stroke:#000000;stroke-dasharray:15,15;stroke-dashoffset:0;stroke-width:3;"/>
   </g>
   <g id="line2d_15">
    <path clip-path="url(#pd4f3f24193)" d="M 69.218182 242.116364 
L 72.292562 242.116359 
L 75.366942 242.116351 
L 78.441322 242.116338 
L 81.515702 242.116317 
L 84.590083 242.116283 
L 87.664463 242.116227 
L 90.738843 242.116132 
L 93.813223 242.11597 
L 96.887603 242.115691 
L 99.961983 242.115204 
L 103.036364 242.11435 
L 106.110744 242.112831 
L 109.185124 242.110103 
L 112.259504 242.105141 
L 115.333884 242.095994 
L 118.408264 242.078857 
L 121.482645 242.046134 
L 124.557025 241.982156 
L 127.631405 241.853327 
L 130.705785 241.583938 
L 133.780165 240.992444 
L 136.854545 239.609434 
L 139.928926 236.124406 
L 143.003306 226.864167 
L 146.077686 204.789234 
L 149.152066 169.658694 
L 152.226446 133.715198 
L 155.300826 104.995869 
L 158.375207 84.623837 
L 161.449587 71.127201 
L 164.523967 62.52564 
L 167.598347 57.095493 
L 170.672727 53.61059 
L 173.747107 51.301607 
L 176.821488 49.714491 
L 179.895868 48.58445 
L 182.970248 47.754435 
L 186.044628 47.128451 
L 189.119008 46.645778 
L 192.193388 46.266685 
L 195.267769 45.96434 
L 198.342149 45.720097 
L 201.416529 45.52066 
L 204.490909 45.356334 
L 207.565289 45.219899 
L 210.639669 45.105888 
L 213.71405 45.010089 
L 216.78843 44.929216 
L 219.86281 44.860668 
L 222.93719 44.802367 
L 226.01157 44.752637 
L 229.08595 44.710109 
L 232.160331 44.673662 
L 235.234711 44.642368 
L 238.309091 44.615455 
L 241.383471 44.592279 
L 244.457851 44.572297 
L 247.532231 44.55505 
L 250.606612 44.540152 
L 253.680992 44.527272 
L 256.755372 44.516129 
L 259.829752 44.506484 
L 262.904132 44.498131 
L 265.978512 44.490893 
L 269.052893 44.484619 
L 272.127273 44.479179 
L 275.201653 44.47446 
L 278.276033 44.470366 
L 281.350413 44.466812 
L 284.424793 44.463728 
L 287.499174 44.461049 
L 290.573554 44.458723 
L 293.647934 44.456702 
L 296.722314 44.454947 
L 299.796694 44.453422 
L 302.871074 44.452097 
L 305.945455 44.450945 
L 309.019835 44.449944 
L 312.094215 44.449074 
L 315.168595 44.448318 
L 318.242975 44.44766 
L 321.317355 44.447088 
L 324.391736 44.446592 
L 327.466116 44.446159 
L 330.540496 44.445784 
L 333.614876 44.445457 
L 336.689256 44.445173 
L 339.763636 44.444926 
L 342.838017 44.444712 
L 345.912397 44.444525 
L 348.986777 44.444363 
L 352.061157 44.444222 
L 355.135537 44.444099 
L 358.209917 44.443992 
L 361.284298 44.4439 
L 364.358678 44.443819 
L 367.433058 44.443749 
L 370.507438 44.443689 
L 373.581818 44.443636 
" style="fill:none;stroke:#000000;stroke-dasharray:15,15;stroke-dashoffset:0;stroke-width:3;"/>
   </g>
   <g id="patch_3">
    <path d="M 54 252 
L 54 34.56 
" style="fill:none;stroke:#000000;stroke-linecap:square;stroke-linejoin:miter;stroke-width:0.8;"/>
   </g>
   <g id="patch_4">
    <path d="M 388.8 252 
L 388.8 34.56 
" style="fill:none;stroke:#000000;stroke-linecap:square;stroke-linejoin:miter;stroke-width:0.8;"/>
   </g>
   <g id="patch_5">
    <path d="M 54 252 
L 388.8 252 
" style="fill:none;stroke:#000000;stroke-linecap:square;stroke-linejoin:miter;stroke-width:0.8;"/>
   </g>
   <g id="patch_6">
    <path d="M 54 34.56 
L 388.8 34.56 
" style="fill:none;stroke:#000000;stroke-linecap:square;stroke-linejoin:miter;stroke-width:0.8;"/>
   </g>
   <g id="legend_1">
    <g id="line2d_16">
     <path d="M 287.984688 192.110625 
L 315.984688 192.110625 
" style="fill:none;stroke:#0066ff;stroke-linecap:square;stroke-width:3;"/>
    </g>
    <g id="line2d_17"/>
    <g id="text_12">
     <text style="font-family:Arial;font-size:14px;font-style:normal;font-weight:normal;text-anchor:start;" transform="rotate(-0, 327.184687, 197.010625)" x="327.184687" y="197.010625">MKKKP</text>
    </g>
    <g id="line2d_18">
     <path d="M 287.984688 211.914062 
L 315.984688 211.914062 
" style="fill:none;stroke:#00aa44;stroke-linecap:square;stroke-width:3;"/>
    </g>
    <g id="line2d_19"/>
    <g id="text_13">
     <text style="font-family:Arial;font-size:14px;font-style:normal;font-weight:normal;text-anchor:start;" transform="rotate(-0, 327.184687, 216.814063)" x="327.184687" y="216.814063">MKKPP</text>
    </g>
    <g id="line2d_20">
     <path d="M 287.984688 231.7175 
L 315.984688 231.7175 
" style="fill:none;stroke:#ff2a2a;stroke-linecap:square;stroke-width:3;"/>
    </g>
    <g id="line2d_21"/>
    <g id="text_14">
     <text style="font-family:Arial;font-size:14px;font-style:normal;font-weight:normal;text-anchor:start;" transform="rotate(-0, 327.184687, 236.6175)" x="327.184687" y="236.6175">MKPP</text>
    </g>
   </g>
  </g>
 </g>
 <defs>
  <clipPath id="pd4f3f24193">
   <rect height="217.44" width="334.8" x="54" y="34.56"/>
  </clipPath>
 </defs>
</svg>
