<?xml version="1.0" encoding="utf-8" standalone="no"?>
<!DOCTYPE svg PUBLIC "-//W3C//DTD SVG 1.1//EN"
  "http://www.w3.org/Graphics/SVG/1.1/DTD/svg11.dtd">
<!-- Created with matplotlib (http://matplotlib.org/) -->
<svg height="288pt" version="1.1" viewBox="0 0 432 288" width="432pt" xmlns="http://www.w3.org/2000/svg" xmlns:xlink="http://www.w3.org/1999/xlink">
 <defs>
  <style type="text/css">
*{stroke-linecap:butt;stroke-linejoin:round;}
  </style>
 </defs>
 <g id="figure_1">
  <g id="patch_1">
   <path d="M 0 288 
L 432 288 
L 432 0 
L 0 0 
z
" style="fill:#ffffff;"/>
  </g>
  <g id="axes_1">
   <g id="patch_2">
    <path d="M 54 252 
L 388.8 252 
L 388.8 34.56 
L 54 34.56 
z
" style="fill:#ffffff;"/>
   </g>
   <g id="matplotlib.axis_1">
    <g id="xtick_1">
     <g id="line2d_1">
      <defs>
       <path d="M 0 0 
L 0 -3.5 
" id="m18da1c8c5e" style="stroke:#000000;stroke-width:0.8;"/>
      </defs>
      <g>
       <use style="stroke:#000000;stroke-width:0.8;" x="119.945455" xlink:href="#m18da1c8c5e" y="252"/>
      </g>
     </g>
     <g id="text_1">
      <!-- $\mathdefault{10^{-6}}$ -->
      <g transform="translate(102.125455 274.0625)">
       <text>
        <tspan style="font-family:Arial;font-size:18px;font-style:regular;font-weight:regular;" x="0 10.010742" y="-0.39887500000000387">10</tspan>
        <tspan style="font-family:Arial;font-size:12.6px;font-style:regular;font-weight:regular;" x="20.335106 27.693309" y="-12.943750000000003">−6</tspan>
       </text>
      </g>
     </g>
    </g>
    <g id="xtick_2">
     <g id="line2d_2">
      <g>
       <use style="stroke:#000000;stroke-width:0.8;" x="221.4" xlink:href="#m18da1c8c5e" y="252"/>
      </g>
     </g>
     <g id="text_2">
      <!-- $\mathdefault{10^{-4}}$ -->
      <g transform="translate(203.58 273.8825)">
       <text>
        <tspan style="font-family:Arial;font-size:18px;font-style:regular;font-weight:regular;" x="0 10.010742" y="-0.43168750000000244">10</tspan>
        <tspan style="font-family:Arial;font-size:12.6px;font-style:regular;font-weight:regular;" x="20.335106 27.693309" y="-12.976562500000002">−4</tspan>
       </text>
      </g>
     </g>
    </g>
    <g id="xtick_3">
     <g id="line2d_3">
      <g>
       <use style="stroke:#000000;stroke-width:0.8;" x="322.854545" xlink:href="#m18da1c8c5e" y="252"/>
      </g>
     </g>
     <g id="text_3">
      <!-- $\mathdefault{10^{-2}}$ -->
      <g transform="translate(305.034545 274.0625)">
       <text>
        <tspan style="font-family:Arial;font-size:18px;font-style:regular;font-weight:regular;" x="0 10.010742" y="-0.39887500000000387">10</tspan>
        <tspan style="font-family:Arial;font-size:12.6px;font-style:regular;font-weight:regular;" x="20.335106 27.693309" y="-12.943750000000003">−2</tspan>
       </text>
      </g>
     </g>
    </g>
    <g id="text_4">
     <text style="font-family:Arial;font-size:18px;font-style:normal;font-weight:normal;text-anchor:middle;" transform="rotate(-0, 221.4, 294.743438)" x="221.4" y="294.743438">Input (MKKKK) concentration (μM)</text>
    </g>
   </g>
   <g id="matplotlib.axis_2">
    <g id="ytick_1">
     <g id="line2d_4">
      <defs>
       <path d="M 0 0 
L 3.5 0 
" id="m5dbc4f1d13" style="stroke:#000000;stroke-width:0.8;"/>
      </defs>
      <g>
       <use style="stroke:#000000;stroke-width:0.8;" x="54" xlink:href="#m5dbc4f1d13" y="242.116376"/>
      </g>
     </g>
     <g id="text_5">
      <text style="font-family:Arial;font-size:18px;font-style:normal;font-weight:normal;text-anchor:end;" transform="rotate(-0, 50.5, 248.558407)" x="50.5" y="248.558407">0.0</text>
     </g>
    </g>
    <g id="ytick_2">
     <g id="line2d_5">
      <g>
       <use style="stroke:#000000;stroke-width:0.8;" x="54" xlink:href="#m5dbc4f1d13" y="202.581828"/>
      </g>
     </g>
     <g id="text_6">
      <text style="font-family:Arial;font-size:18px;font-style:normal;font-weight:normal;text-anchor:end;" transform="rotate(-0, 50.5, 209.023859)" x="50.5" y="209.023859">0.2</text>
     </g>
    </g>
    <g id="ytick_3">
     <g id="line2d_6">
      <g>
       <use style="stroke:#000000;stroke-width:0.8;" x="54" xlink:href="#m5dbc4f1d13" y="163.04728"/>
      </g>
     </g>
     <g id="text_7">
      <text style="font-family:Arial;font-size:18px;font-style:normal;font-weight:normal;text-anchor:end;" transform="rotate(-0, 50.5, 169.489311)" x="50.5" y="169.489311">0.4</text>
     </g>
    </g>
    <g id="ytick_4">
     <g id="line2d_7">
      <g>
       <use style="stroke:#000000;stroke-width:0.8;" x="54" xlink:href="#m5dbc4f1d13" y="123.512732"/>
      </g>
     </g>
     <g id="text_8">
      <text style="font-family:Arial;font-size:18px;font-style:normal;font-weight:normal;text-anchor:end;" transform="rotate(-0, 50.5, 129.954763)" x="50.5" y="129.954763">0.6</text>
     </g>
    </g>
    <g id="ytick_5">
     <g id="line2d_8">
      <g>
       <use style="stroke:#000000;stroke-width:0.8;" x="54" xlink:href="#m5dbc4f1d13" y="83.978184"/>
      </g>
     </g>
     <g id="text_9">
      <text style="font-family:Arial;font-size:18px;font-style:normal;font-weight:normal;text-anchor:end;" transform="rotate(-0, 50.5, 90.420215)" x="50.5" y="90.420215">0.8</text>
     </g>
    </g>
    <g id="ytick_6">
     <g id="line2d_9">
      <g>
       <use style="stroke:#000000;stroke-width:0.8;" x="54" xlink:href="#m5dbc4f1d13" y="44.443636"/>
      </g>
     </g>
     <g id="text_10">
      <text style="font-family:Arial;font-size:18px;font-style:normal;font-weight:normal;text-anchor:end;" transform="rotate(-0, 50.5, 50.885668)" x="50.5" y="50.885668">1.0</text>
     </g>
    </g>
    <g id="text_11">
     <text style="font-family:Arial;font-size:18px;font-style:normal;font-weight:normal;text-anchor:middle;" transform="rotate(-90, 17.9025, 143.28)" x="17.9025" y="143.28">Normalised concentration</text>
    </g>
   </g>
   <g id="line2d_10">
    <path clip-path="url(#p2987481fc3)" d="M 69.218182 241.924543 
L 72.292562 241.900369 
L 75.366942 241.872591 
L 78.441322 241.840673 
L 81.515702 241.804006 
L 84.590083 241.76189 
L 87.664463 241.713527 
L 90.738843 241.658013 
L 93.813223 241.594326 
L 96.887603 241.52133 
L 99.961983 241.437792 
L 103.036364 241.342431 
L 106.110744 241.234045 
L 109.185124 241.111759 
L 112.259504 240.975481 
L 115.333884 240.82655 
L 118.408264 240.668357 
L 121.482645 240.50627 
L 124.557025 240.346351 
L 127.631405 240.193477 
L 130.705785 240.050258 
L 133.780165 239.917255 
L 136.854545 239.793793 
L 139.928926 239.678686 
L 143.003306 239.57066 
L 146.077686 239.468546 
L 149.152066 239.371335 
L 152.226446 239.278188 
L 155.300826 239.188407 
L 158.375207 239.101423 
L 161.449587 239.016766 
L 164.523967 238.934047 
L 167.598347 238.852943 
L 170.672727 238.773182 
L 173.747107 238.694536 
L 176.821488 238.616806 
L 179.895868 238.539819 
L 182.970248 238.463425 
L 186.044628 238.387487 
L 189.119008 238.311872 
L 192.193388 238.236461 
L 195.267769 238.16113 
L 198.342149 238.08575 
L 201.416529 238.01019 
L 204.490909 237.934301 
L 207.565289 237.857921 
L 210.639669 237.780856 
L 213.71405 237.702891 
L 216.78843 237.623766 
L 219.86281 237.543172 
L 222.93719 237.460748 
L 226.01157 237.376052 
L 229.08595 237.288556 
L 232.160331 237.197625 
L 235.234711 237.102486 
L 238.309091 237.00221 
L 241.383471 236.895649 
L 244.457851 236.781421 
L 247.532231 236.657809 
L 250.606612 236.522715 
L 253.680992 236.373526 
L 256.755372 236.206983 
L 259.829752 236.019001 
L 262.904132 235.804409 
L 265.978512 235.556623 
L 269.052893 235.267195 
L 272.127273 234.925249 
L 275.201653 234.516737 
L 278.276033 234.023624 
L 281.350413 233.423194 
L 284.424793 232.688027 
L 287.499174 231.787512 
L 290.573554 230.691255 
L 293.647934 229.372659 
L 296.722314 227.809701 
L 299.796694 225.982283 
L 302.871074 223.868901 
L 305.945455 221.444704 
L 309.019835 218.681055 
L 312.094215 215.54579 
L 315.168595 212.004071 
L 318.242975 208.019052 
L 321.317355 203.552904 
L 324.391736 198.568079 
L 327.466116 193.028596 
L 330.540496 186.901688 
L 333.614876 180.159698 
L 336.689256 172.782115 
L 339.763636 164.757759 
L 342.838017 156.086955 
L 345.912397 146.783551 
L 348.986777 136.876566 
L 352.061157 126.411282 
L 355.135537 115.44956 
L 358.209917 104.069224 
L 361.284298 92.362424 
L 364.358678 80.432986 
L 367.433058 68.392873 
L 370.507438 56.357986 
L 373.581818 44.443636 
" style="fill:none;stroke:#0066ff;stroke-linecap:square;stroke-width:3;"/>
   </g>
   <g id="line2d_11">
    <path clip-path="url(#p2987481fc3)" d="M 69.218182 242.112713 
L 72.292562 242.111732 
L 75.366942 242.110455 
L 78.441322 242.10879 
L 81.515702 242.106612 
L 84.590083 242.103753 
L 87.664463 242.099993 
L 90.738843 242.095034 
L 93.813223 242.088478 
L 96.887603 242.079796 
L 99.961983 242.068281 
L 103.036364 242.053004 
L 106.110744 242.032773 
L 109.185124 242.006119 
L 112.259504 241.971397 
L 115.333884 241.927072 
L 118.408264 241.87227 
L 121.482645 241.80737 
L 124.557025 241.734138 
L 127.631405 241.655097 
L 130.705785 241.572605 
L 133.780165 241.488326 
L 136.854545 241.403191 
L 139.928926 241.317601 
L 143.003306 241.231624 
L 146.077686 241.14516 
L 149.152066 241.058025 
L 152.226446 240.969995 
L 155.300826 240.880845 
L 158.375207 240.790351 
L 161.449587 240.698297 
L 164.523967 240.604481 
L 167.598347 240.508709 
L 170.672727 240.410798 
L 173.747107 240.310569 
L 176.821488 240.207849 
L 179.895868 240.102467 
L 182.970248 239.994241 
L 186.044628 239.882996 
L 189.119008 239.768526 
L 192.193388 239.65062 
L 195.267769 239.529032 
L 198.342149 239.403485 
L 201.416529 239.273652 
L 204.490909 239.139146 
L 207.565289 238.999502 
L 210.639669 238.854156 
L 213.71405 238.702418 
L 216.78843 238.543442 
L 219.86281 238.376181 
L 222.93719 238.199339 
L 226.01157 238.011297 
L 229.08595 237.810028 
L 232.160331 237.592991 
L 235.234711 237.356966 
L 238.309091 237.097864 
L 241.383471 236.810437 
L 244.457851 236.487922 
L 247.532231 236.121485 
L 250.606612 235.699478 
L 253.680992 235.206394 
L 256.755372 234.621221 
L 259.829752 233.915166 
L 262.904132 233.048124 
L 265.978512 231.963409 
L 269.052893 230.579851 
L 272.127273 228.780182 
L 275.201653 226.395147 
L 278.276033 223.185191 
L 281.350413 218.829803 
L 284.424793 212.951358 
L 287.499174 205.215896 
L 290.573554 195.517963 
L 293.647934 184.134545 
L 296.722314 171.678105 
L 299.796694 158.866305 
L 302.871074 146.30701 
L 305.945455 134.413251 
L 309.019835 123.417282 
L 312.094215 113.418996 
L 315.168595 104.432685 
L 318.242975 96.422032 
L 321.317355 89.32325 
L 324.391736 83.059777 
L 327.466116 77.551136 
L 330.540496 72.718116 
L 333.614876 68.485714 
L 336.689256 64.784579 
L 339.763636 61.551612 
L 342.838017 58.73004 
L 345.912397 56.26919 
L 348.986777 54.124102 
L 352.061157 52.255056 
L 355.135537 50.627079 
L 358.209917 49.209453 
L 361.284298 47.975251 
L 364.358678 46.900904 
L 367.433058 45.965805 
L 370.507438 45.151953 
L 373.581818 44.443636 
" style="fill:none;stroke:#00aa44;stroke-linecap:square;stroke-width:3;"/>
   </g>
   <g id="line2d_12">
    <path clip-path="url(#p2987481fc3)" d="M 69.218182 242.116364 
L 72.292562 242.116359 
L 75.366942 242.116351 
L 78.441322 242.116338 
L 81.515702 242.116317 
L 84.590083 242.116283 
L 87.664463 242.116227 
L 90.738843 242.116132 
L 93.813223 242.11597 
L 96.887603 242.115693 
L 99.961983 242.115212 
L 103.036364 242.114374 
L 106.110744 242.112908 
L 109.185124 242.110348 
L 112.259504 242.105916 
L 115.333884 242.098403 
L 118.408264 242.08613 
L 121.482645 242.067139 
L 124.557025 242.039602 
L 127.631405 242.002184 
L 130.705785 241.954072 
L 133.780165 241.894735 
L 136.854545 241.823647 
L 139.928926 241.740129 
L 143.003306 241.643257 
L 146.077686 241.531852 
L 149.152066 241.404457 
L 152.226446 241.259322 
L 155.300826 241.094408 
L 158.375207 240.907343 
L 161.449587 240.695401 
L 164.523967 240.455466 
L 167.598347 240.183986 
L 170.672727 239.876917 
L 173.747107 239.529665 
L 176.821488 239.137022 
L 179.895868 238.693083 
L 182.970248 238.191133 
L 186.044628 237.623633 
L 189.119008 236.981955 
L 192.193388 236.256431 
L 195.267769 235.436082 
L 198.342149 234.508538 
L 201.416529 233.459836 
L 204.490909 232.274274 
L 207.565289 230.934175 
L 210.639669 229.419721 
L 213.71405 227.708717 
L 216.78843 225.776437 
L 219.86281 223.595354 
L 222.93719 221.13508 
L 226.01157 218.362109 
L 229.08595 215.239867 
L 232.160331 211.728845 
L 235.234711 207.786693 
L 238.309091 203.368943 
L 241.383471 198.429535 
L 244.457851 192.922553 
L 247.532231 186.803787 
L 250.606612 180.03358 
L 253.680992 172.581227 
L 256.755372 164.429188 
L 259.829752 155.580772 
L 262.904132 146.068316 
L 265.978512 135.963783 
L 269.052893 125.390742 
L 272.127273 114.536352 
L 275.201653 103.660774 
L 278.276033 93.09774 
L 281.350413 83.236748 
L 284.424793 74.473154 
L 287.499174 67.120374 
L 290.573554 61.310381 
L 293.647934 56.950876 
L 296.722314 53.786899 
L 299.796694 51.517585 
L 302.871074 49.881565 
L 305.945455 48.684404 
L 309.019835 47.791791 
L 312.094215 47.113425 
L 315.168595 46.588676 
L 318.242975 46.176363 
L 321.317355 45.848019 
L 324.391736 45.583574 
L 327.466116 45.368603 
L 330.540496 45.192537 
L 333.614876 45.047503 
L 336.689256 44.927542 
L 339.763636 44.828083 
L 342.838017 44.745572 
L 345.912397 44.67722 
L 348.986777 44.620815 
L 352.061157 44.574589 
L 355.135537 44.537117 
L 358.209917 44.507239 
L 361.284298 44.484009 
L 364.358678 44.466642 
L 367.433058 44.454482 
L 370.507438 44.446974 
L 373.581818 44.443636 
" style="fill:none;stroke:#ff2a2a;stroke-linecap:square;stroke-width:3;"/>
   </g>
   <g id="patch_3">
    <path d="M 54 252 
L 54 34.56 
" style="fill:none;stroke:#000000;stroke-linecap:square;stroke-linejoin:miter;stroke-width:0.8;"/>
   </g>
   <g id="patch_4">
    <path d="M 388.8 252 
L 388.8 34.56 
" style="fill:none;stroke:#000000;stroke-linecap:square;stroke-linejoin:miter;stroke-width:0.8;"/>
   </g>
   <g id="patch_5">
    <path d="M 54 252 
L 388.8 252 
" style="fill:none;stroke:#000000;stroke-linecap:square;stroke-linejoin:miter;stroke-width:0.8;"/>
   </g>
   <g id="patch_6">
    <path d="M 54 34.56 
L 388.8 34.56 
" style="fill:none;stroke:#000000;stroke-linecap:square;stroke-linejoin:miter;stroke-width:0.8;"/>
   </g>
   <g id="legend_1">
    <g id="line2d_13">
     <path d="M 66.6 52.280938 
L 94.6 52.280938 
" style="fill:none;stroke:#0066ff;stroke-linecap:square;stroke-width:3;"/>
    </g>
    <g id="line2d_14"/>
    <g id="text_12">
     <text style="font-family:Arial;font-size:14px;font-style:normal;font-weight:normal;text-anchor:start;" transform="rotate(-0, 105.8, 57.180938)" x="105.8" y="57.180938">MKKKP</text>
    </g>
    <g id="line2d_15">
     <path d="M 66.6 72.084375 
L 94.6 72.084375 
" style="fill:none;stroke:#00aa44;stroke-linecap:square;stroke-width:3;"/>
    </g>
    <g id="line2d_16"/>
    <g id="text_13">
     <text style="font-family:Arial;font-size:14px;font-style:normal;font-weight:normal;text-anchor:start;" transform="rotate(-0, 105.8, 76.984375)" x="105.8" y="76.984375">MKKPP</text>
    </g>
    <g id="line2d_17">
     <path d="M 66.6 91.887813 
L 94.6 91.887813 
" style="fill:none;stroke:#ff2a2a;stroke-linecap:square;stroke-width:3;"/>
    </g>
    <g id="line2d_18"/>
    <g id="text_14">
     <text style="font-family:Arial;font-size:14px;font-style:normal;font-weight:normal;text-anchor:start;" transform="rotate(-0, 105.8, 96.787813)" x="105.8" y="96.787813">MKPP</text>
    </g>
   </g>
  </g>
 </g>
 <defs>
  <clipPath id="p2987481fc3">
   <rect height="217.44" width="334.8" x="54" y="34.56"/>
  </clipPath>
 </defs>
</svg>
