<?xml version="1.0" encoding="utf-8" standalone="no"?>
<!DOCTYPE svg PUBLIC "-//W3C//DTD SVG 1.1//EN"
  "http://www.w3.org/Graphics/SVG/1.1/DTD/svg11.dtd">
<!-- Created with matplotlib (http://matplotlib.org/) -->
<svg height="288pt" version="1.1" viewBox="0 0 432 288" width="432pt" xmlns="http://www.w3.org/2000/svg" xmlns:xlink="http://www.w3.org/1999/xlink">
 <defs>
  <style type="text/css">
*{stroke-linecap:butt;stroke-linejoin:round;}
  </style>
 </defs>
 <g id="figure_1">
  <g id="patch_1">
   <path d="M 0 288 
L 432 288 
L 432 0 
L 0 0 
z
" style="fill:#ffffff;"/>
  </g>
  <g id="axes_1">
   <g id="patch_2">
    <path d="M 54 252 
L 388.8 252 
L 388.8 34.56 
L 54 34.56 
z
" style="fill:#ffffff;"/>
   </g>
   <g id="matplotlib.axis_1">
    <g id="xtick_1">
     <g id="line2d_1">
      <defs>
       <path d="M 0 0 
L 0 -3.5 
" id="md07c3cf182" style="stroke:#000000;stroke-width:0.8;"/>
      </defs>
      <g>
       <use style="stroke:#000000;stroke-width:0.8;" x="119.945455" xlink:href="#md07c3cf182" y="252"/>
      </g>
     </g>
     <g id="text_1">
      <!-- $\mathdefault{10^{-6}}$ -->
      <g transform="translate(102.125455 274.0625)">
       <text>
        <tspan style="font-family:Arial;font-size:18px;font-style:regular;font-weight:regular;" x="0 10.010742" y="-0.39887500000000387">10</tspan>
        <tspan style="font-family:Arial;font-size:12.6px;font-style:regular;font-weight:regular;" x="20.335106 27.693309" y="-12.943750000000003">−6</tspan>
       </text>
      </g>
     </g>
    </g>
    <g id="xtick_2">
     <g id="line2d_2">
      <g>
       <use style="stroke:#000000;stroke-width:0.8;" x="221.4" xlink:href="#md07c3cf182" y="252"/>
      </g>
     </g>
     <g id="text_2">
      <!-- $\mathdefault{10^{-4}}$ -->
      <g transform="translate(203.58 273.8825)">
       <text>
        <tspan style="font-family:Arial;font-size:18px;font-style:regular;font-weight:regular;" x="0 10.010742" y="-0.43168750000000244">10</tspan>
        <tspan style="font-family:Arial;font-size:12.6px;font-style:regular;font-weight:regular;" x="20.335106 27.693309" y="-12.976562500000002">−4</tspan>
       </text>
      </g>
     </g>
    </g>
    <g id="xtick_3">
     <g id="line2d_3">
      <g>
       <use style="stroke:#000000;stroke-width:0.8;" x="322.854545" xlink:href="#md07c3cf182" y="252"/>
      </g>
     </g>
     <g id="text_3">
      <!-- $\mathdefault{10^{-2}}$ -->
      <g transform="translate(305.034545 274.0625)">
       <text>
        <tspan style="font-family:Arial;font-size:18px;font-style:regular;font-weight:regular;" x="0 10.010742" y="-0.39887500000000387">10</tspan>
        <tspan style="font-family:Arial;font-size:12.6px;font-style:regular;font-weight:regular;" x="20.335106 27.693309" y="-12.943750000000003">−2</tspan>
       </text>
      </g>
     </g>
    </g>
    <g id="text_4">
     <text style="font-family:Arial;font-size:18px;font-style:normal;font-weight:normal;text-anchor:middle;" transform="rotate(-0, 221.4, 294.743438)" x="221.4" y="294.743438">Input (MKKKK) concentration (μM)</text>
    </g>
   </g>
   <g id="matplotlib.axis_2">
    <g id="ytick_1">
     <g id="line2d_4">
      <defs>
       <path d="M 0 0 
L 3.5 0 
" id="mc75181a470" style="stroke:#000000;stroke-width:0.8;"/>
      </defs>
      <g>
       <use style="stroke:#000000;stroke-width:0.8;" x="54" xlink:href="#mc75181a470" y="242.116368"/>
      </g>
     </g>
     <g id="text_5">
      <text style="font-family:Arial;font-size:18px;font-style:normal;font-weight:normal;text-anchor:end;" transform="rotate(-0, 50.5, 248.558399)" x="50.5" y="248.558399">0.0</text>
     </g>
    </g>
    <g id="ytick_2">
     <g id="line2d_5">
      <g>
       <use style="stroke:#000000;stroke-width:0.8;" x="54" xlink:href="#mc75181a470" y="202.581822"/>
      </g>
     </g>
     <g id="text_6">
      <text style="font-family:Arial;font-size:18px;font-style:normal;font-weight:normal;text-anchor:end;" transform="rotate(-0, 50.5, 209.023853)" x="50.5" y="209.023853">0.2</text>
     </g>
    </g>
    <g id="ytick_3">
     <g id="line2d_6">
      <g>
       <use style="stroke:#000000;stroke-width:0.8;" x="54" xlink:href="#mc75181a470" y="163.047275"/>
      </g>
     </g>
     <g id="text_7">
      <text style="font-family:Arial;font-size:18px;font-style:normal;font-weight:normal;text-anchor:end;" transform="rotate(-0, 50.5, 169.489306)" x="50.5" y="169.489306">0.4</text>
     </g>
    </g>
    <g id="ytick_4">
     <g id="line2d_7">
      <g>
       <use style="stroke:#000000;stroke-width:0.8;" x="54" xlink:href="#mc75181a470" y="123.512729"/>
      </g>
     </g>
     <g id="text_8">
      <text style="font-family:Arial;font-size:18px;font-style:normal;font-weight:normal;text-anchor:end;" transform="rotate(-0, 50.5, 129.95476)" x="50.5" y="129.95476">0.6</text>
     </g>
    </g>
    <g id="ytick_5">
     <g id="line2d_8">
      <g>
       <use style="stroke:#000000;stroke-width:0.8;" x="54" xlink:href="#mc75181a470" y="83.978183"/>
      </g>
     </g>
     <g id="text_9">
      <text style="font-family:Arial;font-size:18px;font-style:normal;font-weight:normal;text-anchor:end;" transform="rotate(-0, 50.5, 90.420214)" x="50.5" y="90.420214">0.8</text>
     </g>
    </g>
    <g id="ytick_6">
     <g id="line2d_9">
      <g>
       <use style="stroke:#000000;stroke-width:0.8;" x="54" xlink:href="#mc75181a470" y="44.443636"/>
      </g>
     </g>
     <g id="text_10">
      <text style="font-family:Arial;font-size:18px;font-style:normal;font-weight:normal;text-anchor:end;" transform="rotate(-0, 50.5, 50.885668)" x="50.5" y="50.885668">1.0</text>
     </g>
    </g>
    <g id="text_11">
     <text style="font-family:Arial;font-size:18px;font-style:normal;font-weight:normal;text-anchor:middle;" transform="rotate(-90, 17.9025, 143.28)" x="17.9025" y="143.28">Normalised concentration</text>
    </g>
   </g>
   <g id="line2d_10">
    <path clip-path="url(#p33b7a7de90)" d="M 69.218182 242.052015 
L 72.292562 242.044692 
L 75.366942 242.036295 
L 78.441322 242.026632 
L 81.515702 242.015525 
L 84.590083 242.002687 
L 87.664463 241.988268 
L 90.738843 241.971442 
L 93.813223 241.952043 
L 96.887603 241.929509 
L 99.961983 241.903953 
L 103.036364 241.874848 
L 106.110744 241.840998 
L 109.185124 241.802242 
L 112.259504 241.758201 
L 115.333884 241.707368 
L 118.408264 241.649174 
L 121.482645 241.581996 
L 124.557025 241.506119 
L 127.631405 241.421135 
L 130.705785 241.325855 
L 133.780165 241.221728 
L 136.854545 241.112022 
L 139.928926 241.003354 
L 143.003306 240.898204 
L 146.077686 240.794421 
L 149.152066 240.688704 
L 152.226446 240.580571 
L 155.300826 240.47496 
L 158.375207 240.377449 
L 161.449587 240.2902 
L 164.523967 240.211641 
L 167.598347 240.140075 
L 170.672727 240.07371 
L 173.747107 240.011888 
L 176.821488 239.952733 
L 179.895868 239.896647 
L 182.970248 239.839145 
L 186.044628 239.78762 
L 189.119008 239.735362 
L 192.193388 239.674967 
L 195.267769 239.619876 
L 198.342149 239.568817 
L 201.416529 239.513741 
L 204.490909 239.453223 
L 207.565289 239.389187 
L 210.639669 239.320932 
L 213.71405 239.246405 
L 216.78843 239.164664 
L 219.86281 239.073565 
L 222.93719 238.970955 
L 226.01157 238.853782 
L 229.08595 238.718368 
L 232.160331 238.559954 
L 235.234711 238.372413 
L 238.309091 238.147812 
L 241.383471 237.876005 
L 244.457851 237.544279 
L 247.532231 237.137458 
L 250.606612 236.639276 
L 253.680992 236.034098 
L 256.755372 235.308209 
L 259.829752 234.449622 
L 262.904132 233.447377 
L 265.978512 232.288432 
L 269.052893 230.958236 
L 272.127273 229.437205 
L 275.201653 227.707556 
L 278.276033 225.748113 
L 281.350413 223.53028 
L 284.424793 221.035389 
L 287.499174 218.234566 
L 290.573554 215.101274 
L 293.647934 211.607067 
L 296.722314 207.734383 
L 299.796694 203.46005 
L 302.871074 198.765045 
L 305.945455 193.642627 
L 309.019835 188.075499 
L 312.094215 182.082299 
L 315.168595 175.661163 
L 318.242975 168.847141 
L 321.317355 161.668167 
L 324.391736 154.181589 
L 327.466116 146.419886 
L 330.540496 138.475311 
L 333.614876 130.397506 
L 336.689256 122.280802 
L 339.763636 114.197604 
L 342.838017 106.231967 
L 345.912397 98.448859 
L 348.986777 90.918278 
L 352.061157 83.70392 
L 355.135537 76.845016 
L 358.209917 70.370955 
L 361.284298 64.321062 
L 364.358678 58.70513 
L 367.433058 53.522081 
L 370.507438 48.771331 
L 373.581818 44.443636 
" style="fill:none;stroke:#0066ff;stroke-linecap:square;stroke-width:3;"/>
   </g>
   <g id="line2d_11">
    <path clip-path="url(#p33b7a7de90)" d="M 69.218182 242.114816 
L 72.292562 242.114448 
L 75.366942 242.113975 
L 78.441322 242.113365 
L 81.515702 242.112576 
L 84.590083 242.111546 
L 87.664463 242.110236 
L 90.738843 242.108502 
L 93.813223 242.106218 
L 96.887603 242.10318 
L 99.961983 242.09923 
L 103.036364 242.094063 
L 106.110744 242.087124 
L 109.185124 242.077925 
L 112.259504 242.065799 
L 115.333884 242.049511 
L 118.408264 242.027704 
L 121.482645 241.998117 
L 124.557025 241.958773 
L 127.631405 241.906766 
L 130.705785 241.837922 
L 133.780165 241.749071 
L 136.854545 241.639197 
L 139.928926 241.513778 
L 143.003306 241.376385 
L 146.077686 241.224605 
L 149.152066 241.051615 
L 152.226446 240.852291 
L 155.300826 240.633462 
L 158.375207 240.408987 
L 161.449587 240.190162 
L 164.523967 239.977916 
L 167.598347 239.772435 
L 170.672727 239.571594 
L 173.747107 239.369023 
L 176.821488 239.172602 
L 179.895868 238.975718 
L 182.970248 238.770502 
L 186.044628 238.560518 
L 189.119008 238.351304 
L 192.193388 238.142025 
L 195.267769 237.869425 
L 198.342149 237.623869 
L 201.416529 237.357998 
L 204.490909 237.061663 
L 207.565289 236.725921 
L 210.639669 236.34643 
L 213.71405 235.909844 
L 216.78843 235.399969 
L 219.86281 234.793885 
L 222.93719 234.060343 
L 226.01157 233.155907 
L 229.08595 232.018484 
L 232.160331 230.558853 
L 235.234711 228.64802 
L 238.309091 226.09924 
L 241.383471 222.650945 
L 244.457851 217.962095 
L 247.532231 211.648776 
L 250.606612 203.431514 
L 253.680992 193.317102 
L 256.755372 181.697186 
L 259.829752 169.232307 
L 262.904132 156.637321 
L 265.978512 144.449996 
L 269.052893 133.022511 
L 272.127273 122.512109 
L 275.201653 113.007254 
L 278.276033 104.500073 
L 281.350413 96.919406 
L 284.424793 90.224549 
L 287.499174 84.324031 
L 290.573554 79.138278 
L 293.647934 74.587512 
L 296.722314 70.609026 
L 299.796694 67.132545 
L 302.871074 64.096481 
L 305.945455 61.449924 
L 309.019835 59.138817 
L 312.094215 57.127637 
L 315.168595 55.373584 
L 318.242975 53.847296 
L 321.317355 52.518092 
L 324.391736 51.362537 
L 327.466116 50.354883 
L 330.540496 49.479469 
L 333.614876 48.716703 
L 336.689256 48.053597 
L 339.763636 47.476621 
L 342.838017 46.974965 
L 345.912397 46.538295 
L 348.986777 46.158333 
L 352.061157 45.827939 
L 355.135537 45.540265 
L 358.209917 45.289462 
L 361.284298 45.071214 
L 364.358678 44.881064 
L 367.433058 44.715108 
L 370.507438 44.570225 
L 373.581818 44.443636 
" style="fill:none;stroke:#00aa44;stroke-linecap:square;stroke-width:3;"/>
   </g>
   <g id="line2d_12">
    <path clip-path="url(#p33b7a7de90)" d="M 69.218182 242.116364 
L 72.292562 242.116363 
L 75.366942 242.116361 
L 78.441322 242.116358 
L 81.515702 242.116355 
L 84.590083 242.116349 
L 87.664463 242.11634 
L 90.738843 242.116326 
L 93.813223 242.116302 
L 96.887603 242.116263 
L 99.961983 242.116198 
L 103.036364 242.116089 
L 106.110744 242.115901 
L 109.185124 242.115575 
L 112.259504 242.115015 
L 115.333884 242.114021 
L 118.408264 242.112255 
L 121.482645 242.109046 
L 124.557025 242.103291 
L 127.631405 242.092989 
L 130.705785 242.07443 
L 133.780165 242.041657 
L 136.854545 241.986405 
L 139.928926 241.901604 
L 143.003306 241.779365 
L 146.077686 241.604583 
L 149.152066 241.348123 
L 152.226446 240.966401 
L 155.300826 240.424602 
L 158.375207 239.713864 
L 161.449587 238.846361 
L 164.523967 237.816774 
L 167.598347 236.621684 
L 170.672727 235.245738 
L 173.747107 233.632074 
L 176.821488 231.838559 
L 179.895868 229.806658 
L 182.970248 227.437784 
L 186.044628 224.754768 
L 189.119008 221.837901 
L 192.193388 218.703168 
L 195.267769 214.343161 
L 198.342149 210.213978 
L 201.416529 205.602902 
L 204.490909 200.381921 
L 207.565289 194.471954 
L 210.639669 187.921926 
L 213.71405 180.682466 
L 216.78843 172.737785 
L 219.86281 164.075694 
L 222.93719 154.71185 
L 226.01157 144.698262 
L 229.08595 134.127099 
L 232.160331 123.148088 
L 235.234711 111.980256 
L 238.309091 100.913676 
L 241.383471 90.311034 
L 244.457851 80.578153 
L 247.532231 72.093788 
L 250.606612 65.133953 
L 253.680992 59.752186 
L 256.755372 55.778397 
L 259.829752 52.918315 
L 262.904132 50.873787 
L 265.978512 49.397334 
L 269.052893 48.313186 
L 272.127273 47.499763 
L 275.201653 46.879095 
L 278.276033 46.397197 
L 281.350413 46.016287 
L 284.424793 45.712448 
L 287.499174 45.467021 
L 290.573554 45.267046 
L 293.647934 45.102896 
L 296.722314 44.967772 
L 299.796694 44.85611 
L 302.871074 44.763709 
L 305.945455 44.68743 
L 309.019835 44.624598 
L 312.094215 44.573422 
L 315.168595 44.532233 
L 318.242975 44.499904 
L 321.317355 44.475475 
L 324.391736 44.458265 
L 327.466116 44.447761 
L 330.540496 44.443636 
L 333.614876 44.445749 
L 336.689256 44.454041 
L 339.763636 44.468639 
L 342.838017 44.489755 
L 345.912397 44.517819 
L 348.986777 44.55334 
L 352.061157 44.596917 
L 355.135537 44.649462 
L 358.209917 44.712139 
L 361.284298 44.785909 
L 364.358678 44.872246 
L 367.433058 44.972997 
L 370.507438 45.090037 
L 373.581818 45.225517 
" style="fill:none;stroke:#ff2a2a;stroke-linecap:square;stroke-width:3;"/>
   </g>
   <g id="patch_3">
    <path d="M 54 252 
L 54 34.56 
" style="fill:none;stroke:#000000;stroke-linecap:square;stroke-linejoin:miter;stroke-width:0.8;"/>
   </g>
   <g id="patch_4">
    <path d="M 388.8 252 
L 388.8 34.56 
" style="fill:none;stroke:#000000;stroke-linecap:square;stroke-linejoin:miter;stroke-width:0.8;"/>
   </g>
   <g id="patch_5">
    <path d="M 54 252 
L 388.8 252 
" style="fill:none;stroke:#000000;stroke-linecap:square;stroke-linejoin:miter;stroke-width:0.8;"/>
   </g>
   <g id="patch_6">
    <path d="M 54 34.56 
L 388.8 34.56 
" style="fill:none;stroke:#000000;stroke-linecap:square;stroke-linejoin:miter;stroke-width:0.8;"/>
   </g>
   <g id="legend_1">
    <g id="line2d_13">
     <path d="M 66.6 52.280938 
L 94.6 52.280938 
" style="fill:none;stroke:#0066ff;stroke-linecap:square;stroke-width:3;"/>
    </g>
    <g id="line2d_14"/>
    <g id="text_12">
     <text style="font-family:Arial;font-size:14px;font-style:normal;font-weight:normal;text-anchor:start;" transform="rotate(-0, 105.8, 57.180938)" x="105.8" y="57.180938">MKKKP</text>
    </g>
    <g id="line2d_15">
     <path d="M 66.6 72.084375 
L 94.6 72.084375 
" style="fill:none;stroke:#00aa44;stroke-linecap:square;stroke-width:3;"/>
    </g>
    <g id="line2d_16"/>
    <g id="text_13">
     <text style="font-family:Arial;font-size:14px;font-style:normal;font-weight:normal;text-anchor:start;" transform="rotate(-0, 105.8, 76.984375)" x="105.8" y="76.984375">MKKPP</text>
    </g>
    <g id="line2d_17">
     <path d="M 66.6 91.887813 
L 94.6 91.887813 
" style="fill:none;stroke:#ff2a2a;stroke-linecap:square;stroke-width:3;"/>
    </g>
    <g id="line2d_18"/>
    <g id="text_14">
     <text style="font-family:Arial;font-size:14px;font-style:normal;font-weight:normal;text-anchor:start;" transform="rotate(-0, 105.8, 96.787813)" x="105.8" y="96.787813">MKPP</text>
    </g>
   </g>
  </g>
 </g>
 <defs>
  <clipPath id="p33b7a7de90">
   <rect height="217.44" width="334.8" x="54" y="34.56"/>
  </clipPath>
 </defs>
</svg>
