<?xml version="1.0" encoding="utf-8" standalone="no"?>
<!DOCTYPE svg PUBLIC "-//W3C//DTD SVG 1.1//EN"
  "http://www.w3.org/Graphics/SVG/1.1/DTD/svg11.dtd">
<!-- Created with matplotlib (http://matplotlib.org/) -->
<svg height="288pt" version="1.1" viewBox="0 0 432 288" width="432pt" xmlns="http://www.w3.org/2000/svg" xmlns:xlink="http://www.w3.org/1999/xlink">
 <defs>
  <style type="text/css">
*{stroke-linecap:butt;stroke-linejoin:round;}
  </style>
 </defs>
 <g id="figure_1">
  <g id="patch_1">
   <path d="M 0 288 
L 432 288 
L 432 0 
L 0 0 
z
" style="fill:#ffffff;"/>
  </g>
  <g id="axes_1">
   <g id="patch_2">
    <path d="M 54 252 
L 388.8 252 
L 388.8 34.56 
L 54 34.56 
z
" style="fill:#ffffff;"/>
   </g>
   <g id="matplotlib.axis_1">
    <g id="xtick_1">
     <g id="line2d_1">
      <defs>
       <path d="M 0 0 
L 0 -3.5 
" id="m0a4ae201d8" style="stroke:#000000;stroke-width:0.8;"/>
      </defs>
      <g>
       <use style="stroke:#000000;stroke-width:0.8;" x="119.945455" xlink:href="#m0a4ae201d8" y="252"/>
      </g>
     </g>
     <g id="text_1">
      <!-- $\mathdefault{10^{-6}}$ -->
      <g transform="translate(102.125455 274.0625)">
       <text>
        <tspan style="font-family:Arial;font-size:18px;font-style:regular;font-weight:regular;" x="0 10.010742" y="-0.39887500000000387">10</tspan>
        <tspan style="font-family:Arial;font-size:12.6px;font-style:regular;font-weight:regular;" x="20.335106 27.693309" y="-12.943750000000003">−6</tspan>
       </text>
      </g>
     </g>
    </g>
    <g id="xtick_2">
     <g id="line2d_2">
      <g>
       <use style="stroke:#000000;stroke-width:0.8;" x="221.4" xlink:href="#m0a4ae201d8" y="252"/>
      </g>
     </g>
     <g id="text_2">
      <!-- $\mathdefault{10^{-4}}$ -->
      <g transform="translate(203.58 273.8825)">
       <text>
        <tspan style="font-family:Arial;font-size:18px;font-style:regular;font-weight:regular;" x="0 10.010742" y="-0.43168750000000244">10</tspan>
        <tspan style="font-family:Arial;font-size:12.6px;font-style:regular;font-weight:regular;" x="20.335106 27.693309" y="-12.976562500000002">−4</tspan>
       </text>
      </g>
     </g>
    </g>
    <g id="xtick_3">
     <g id="line2d_3">
      <g>
       <use style="stroke:#000000;stroke-width:0.8;" x="322.854545" xlink:href="#m0a4ae201d8" y="252"/>
      </g>
     </g>
     <g id="text_3">
      <!-- $\mathdefault{10^{-2}}$ -->
      <g transform="translate(305.034545 274.0625)">
       <text>
        <tspan style="font-family:Arial;font-size:18px;font-style:regular;font-weight:regular;" x="0 10.010742" y="-0.39887500000000387">10</tspan>
        <tspan style="font-family:Arial;font-size:12.6px;font-style:regular;font-weight:regular;" x="20.335106 27.693309" y="-12.943750000000003">−2</tspan>
       </text>
      </g>
     </g>
    </g>
    <g id="text_4">
     <text style="font-family:Arial;font-size:18px;font-style:normal;font-weight:normal;text-anchor:middle;" transform="rotate(-0, 221.4, 294.743438)" x="221.4" y="294.743438">Input (MKKKK) concentration (μM)</text>
    </g>
   </g>
   <g id="matplotlib.axis_2">
    <g id="ytick_1">
     <g id="line2d_4">
      <defs>
       <path d="M 0 0 
L 3.5 0 
" id="ma37dcaa08d" style="stroke:#000000;stroke-width:0.8;"/>
      </defs>
      <g>
       <use style="stroke:#000000;stroke-width:0.8;" x="54" xlink:href="#ma37dcaa08d" y="242.116365"/>
      </g>
     </g>
     <g id="text_5">
      <text style="font-family:Arial;font-size:18px;font-style:normal;font-weight:normal;text-anchor:end;" transform="rotate(-0, 50.5, 248.558396)" x="50.5" y="248.558396">0.0</text>
     </g>
    </g>
    <g id="ytick_2">
     <g id="line2d_5">
      <g>
       <use style="stroke:#000000;stroke-width:0.8;" x="54" xlink:href="#ma37dcaa08d" y="202.581819"/>
      </g>
     </g>
     <g id="text_6">
      <text style="font-family:Arial;font-size:18px;font-style:normal;font-weight:normal;text-anchor:end;" transform="rotate(-0, 50.5, 209.02385)" x="50.5" y="209.02385">0.2</text>
     </g>
    </g>
    <g id="ytick_3">
     <g id="line2d_6">
      <g>
       <use style="stroke:#000000;stroke-width:0.8;" x="54" xlink:href="#ma37dcaa08d" y="163.047273"/>
      </g>
     </g>
     <g id="text_7">
      <text style="font-family:Arial;font-size:18px;font-style:normal;font-weight:normal;text-anchor:end;" transform="rotate(-0, 50.5, 169.489305)" x="50.5" y="169.489305">0.4</text>
     </g>
    </g>
    <g id="ytick_4">
     <g id="line2d_7">
      <g>
       <use style="stroke:#000000;stroke-width:0.8;" x="54" xlink:href="#ma37dcaa08d" y="123.512728"/>
      </g>
     </g>
     <g id="text_8">
      <text style="font-family:Arial;font-size:18px;font-style:normal;font-weight:normal;text-anchor:end;" transform="rotate(-0, 50.5, 129.954759)" x="50.5" y="129.954759">0.6</text>
     </g>
    </g>
    <g id="ytick_5">
     <g id="line2d_8">
      <g>
       <use style="stroke:#000000;stroke-width:0.8;" x="54" xlink:href="#ma37dcaa08d" y="83.978182"/>
      </g>
     </g>
     <g id="text_9">
      <text style="font-family:Arial;font-size:18px;font-style:normal;font-weight:normal;text-anchor:end;" transform="rotate(-0, 50.5, 90.420213)" x="50.5" y="90.420213">0.8</text>
     </g>
    </g>
    <g id="ytick_6">
     <g id="line2d_9">
      <g>
       <use style="stroke:#000000;stroke-width:0.8;" x="54" xlink:href="#ma37dcaa08d" y="44.443636"/>
      </g>
     </g>
     <g id="text_10">
      <text style="font-family:Arial;font-size:18px;font-style:normal;font-weight:normal;text-anchor:end;" transform="rotate(-0, 50.5, 50.885668)" x="50.5" y="50.885668">1.0</text>
     </g>
    </g>
    <g id="text_11">
     <text style="font-family:Arial;font-size:18px;font-style:normal;font-weight:normal;text-anchor:middle;" transform="rotate(-90, 17.9025, 143.28)" x="17.9025" y="143.28">Normalised concentration</text>
    </g>
   </g>
   <g id="line2d_10">
    <path clip-path="url(#p763b1cc0d2)" d="M 69.218182 242.116364 
L 72.292562 242.116364 
L 75.366942 242.116364 
L 78.441322 242.116364 
L 81.515702 242.116364 
L 84.590083 242.116364 
L 87.664463 242.116364 
L 90.738843 242.116364 
L 93.813223 242.116364 
L 96.887603 242.116364 
L 99.961983 242.116364 
L 103.036364 242.116364 
L 106.110744 242.116364 
L 109.185124 242.116364 
L 112.259504 242.116364 
L 115.333884 242.116364 
L 118.408264 242.116364 
L 121.482645 242.116364 
L 124.557025 242.116364 
L 127.631405 242.116364 
L 130.705785 242.116364 
L 133.780165 242.116364 
L 136.854545 242.116364 
L 139.928926 242.116364 
L 143.003306 242.116364 
L 146.077686 242.116364 
L 149.152066 242.116364 
L 152.226446 242.116364 
L 155.300826 242.116364 
L 158.375207 242.116364 
L 161.449587 242.116364 
L 164.523967 242.116364 
L 167.598347 242.116364 
L 170.672727 242.116364 
L 173.747107 242.116364 
L 176.821488 242.116364 
L 179.895868 242.116364 
L 182.970248 242.116364 
L 186.044628 242.116364 
L 189.119008 242.116364 
L 192.193388 242.116364 
L 195.267769 242.116364 
L 198.342149 242.116364 
L 201.416529 242.116364 
L 204.490909 242.116364 
L 207.565289 242.116364 
L 210.639669 242.116364 
L 213.71405 45.00299 
L 216.78843 44.920732 
L 219.86281 44.851043 
L 222.93719 44.791799 
L 226.01157 44.741286 
L 229.08595 44.698108 
L 232.160331 44.661122 
L 235.234711 44.629383 
L 238.309091 44.602106 
L 241.383471 44.578635 
L 244.457851 44.558418 
L 247.532231 44.540991 
L 250.606612 44.525962 
L 253.680992 44.512998 
L 256.755372 44.501814 
L 259.829752 44.49217 
L 262.904132 44.483858 
L 265.978512 44.476705 
L 269.052893 44.470558 
L 272.127273 44.46529 
L 275.201653 44.460792 
L 278.276033 44.456971 
L 281.350413 44.453749 
L 284.424793 44.451059 
L 287.499174 44.448847 
L 290.573554 44.447067 
L 293.647934 44.445683 
L 296.722314 44.444666 
L 299.796694 44.443994 
L 302.871074 44.443654 
L 305.945455 44.443636 
L 309.019835 44.443939 
L 312.094215 44.444564 
L 315.168595 44.445522 
L 318.242975 44.446826 
L 321.317355 44.448498 
L 324.391736 44.450562 
L 327.466116 44.45305 
L 330.540496 44.455999 
L 333.614876 44.459451 
L 336.689256 44.463455 
L 339.763636 44.468065 
L 342.838017 44.473338 
L 345.912397 44.479338 
L 348.986777 44.48613 
L 352.061157 44.493782 
L 355.135537 44.502365 
L 358.209917 44.511944 
L 361.284298 44.522583 
L 364.358678 44.53434 
L 367.433058 44.54726 
L 370.507438 44.561377 
L 373.581818 44.576707 
" style="fill:none;stroke:#ff2a2a;stroke-linecap:square;stroke-width:3;"/>
   </g>
   <g id="line2d_11">
    <path clip-path="url(#p763b1cc0d2)" d="M 69.218182 242.116364 
L 72.292562 242.116364 
L 75.366942 242.116364 
L 78.441322 242.116364 
L 81.515702 242.116364 
L 84.590083 242.116364 
L 87.664463 242.116364 
L 90.738843 242.116364 
L 93.813223 242.116364 
L 96.887603 242.116364 
L 99.961983 242.116364 
L 103.036364 242.116364 
L 106.110744 242.116364 
L 109.185124 242.116364 
L 112.259504 242.116364 
L 115.333884 242.116364 
L 118.408264 242.116364 
L 121.482645 242.116364 
L 124.557025 242.116364 
L 127.631405 242.116364 
L 130.705785 242.116364 
L 133.780165 242.116364 
L 136.854545 242.116364 
L 139.928926 242.116364 
L 143.003306 232.714688 
L 146.077686 210.807772 
L 149.152066 174.976497 
L 152.226446 137.706527 
L 155.300826 107.754884 
L 158.375207 86.434006 
L 161.449587 72.27005 
L 164.523967 63.233293 
L 167.598347 57.535461 
L 170.672727 53.890138 
L 173.747107 51.484363 
L 176.821488 49.837231 
L 179.895868 48.668611 
L 182.970248 47.812868 
L 186.044628 47.169123 
L 189.119008 46.673806 
L 192.193388 46.285468 
L 195.267769 45.976204 
L 198.342149 45.726678 
L 201.416529 45.52314 
L 204.490909 45.355582 
L 207.565289 45.216569 
L 210.639669 45.100479 
L 213.71405 45.00299 
L 216.78843 44.920732 
L 219.86281 44.851043 
L 222.93719 44.791799 
L 226.01157 44.741286 
L 229.08595 44.698108 
L 232.160331 44.661122 
L 235.234711 44.629383 
L 238.309091 44.602106 
L 241.383471 44.578635 
L 244.457851 44.558418 
L 247.532231 44.540991 
L 250.606612 44.525962 
L 253.680992 44.512998 
L 256.755372 44.501814 
L 259.829752 44.49217 
L 262.904132 44.483858 
L 265.978512 44.476705 
L 269.052893 44.470558 
L 272.127273 44.46529 
L 275.201653 44.460792 
L 278.276033 44.456971 
L 281.350413 44.453749 
L 284.424793 44.451059 
L 287.499174 44.448847 
L 290.573554 44.447067 
L 293.647934 44.445683 
L 296.722314 44.444666 
L 299.796694 44.443994 
L 302.871074 44.443654 
L 305.945455 44.443636 
L 309.019835 44.443939 
L 312.094215 44.444564 
L 315.168595 44.445522 
L 318.242975 44.446826 
L 321.317355 44.448498 
L 324.391736 44.450562 
L 327.466116 44.45305 
L 330.540496 44.455999 
L 333.614876 44.459451 
L 336.689256 44.463455 
L 339.763636 44.468065 
L 342.838017 44.473338 
L 345.912397 44.479338 
L 348.986777 44.48613 
L 352.061157 44.493782 
L 355.135537 44.502365 
L 358.209917 44.511944 
L 361.284298 44.522583 
L 364.358678 44.53434 
L 367.433058 44.54726 
L 370.507438 44.561377 
L 373.581818 44.576707 
" style="fill:none;stroke:#ff2a2a;stroke-linecap:square;stroke-width:3;"/>
   </g>
   <g id="patch_3">
    <path d="M 54 252 
L 54 34.56 
" style="fill:none;stroke:#000000;stroke-linecap:square;stroke-linejoin:miter;stroke-width:0.8;"/>
   </g>
   <g id="patch_4">
    <path d="M 388.8 252 
L 388.8 34.56 
" style="fill:none;stroke:#000000;stroke-linecap:square;stroke-linejoin:miter;stroke-width:0.8;"/>
   </g>
   <g id="patch_5">
    <path d="M 54 252 
L 388.8 252 
" style="fill:none;stroke:#000000;stroke-linecap:square;stroke-linejoin:miter;stroke-width:0.8;"/>
   </g>
   <g id="patch_6">
    <path d="M 54 34.56 
L 388.8 34.56 
" style="fill:none;stroke:#000000;stroke-linecap:square;stroke-linejoin:miter;stroke-width:0.8;"/>
   </g>
  </g>
 </g>
 <defs>
  <clipPath id="p763b1cc0d2">
   <rect height="217.44" width="334.8" x="54" y="34.56"/>
  </clipPath>
 </defs>
</svg>
