<?xml version="1.0" encoding="utf-8" standalone="no"?>
<!DOCTYPE svg PUBLIC "-//W3C//DTD SVG 1.1//EN"
  "http://www.w3.org/Graphics/SVG/1.1/DTD/svg11.dtd">
<!-- Created with matplotlib (http://matplotlib.org/) -->
<svg height="288pt" version="1.1" viewBox="0 0 432 288" width="432pt" xmlns="http://www.w3.org/2000/svg" xmlns:xlink="http://www.w3.org/1999/xlink">
 <defs>
  <style type="text/css">
*{stroke-linecap:butt;stroke-linejoin:round;}
  </style>
 </defs>
 <g id="figure_1">
  <g id="patch_1">
   <path d="M 0 288 
L 432 288 
L 432 0 
L 0 0 
z
" style="fill:#ffffff;"/>
  </g>
  <g id="axes_1">
   <g id="patch_2">
    <path d="M 54 252 
L 388.8 252 
L 388.8 34.56 
L 54 34.56 
z
" style="fill:#ffffff;"/>
   </g>
   <g id="matplotlib.axis_1">
    <g id="xtick_1">
     <g id="line2d_1">
      <defs>
       <path d="M 0 0 
L 0 -3.5 
" id="m3c188030be" style="stroke:#000000;stroke-width:0.8;"/>
      </defs>
      <g>
       <use style="stroke:#000000;stroke-width:0.8;" x="119.945455" xlink:href="#m3c188030be" y="252"/>
      </g>
     </g>
     <g id="text_1">
      <!-- $\mathdefault{10^{-4}}$ -->
      <g transform="translate(102.125455 273.8825)">
       <text>
        <tspan style="font-family:Arial;font-size:18px;font-style:regular;font-weight:regular;" x="0 10.010742" y="-0.43168750000000244">10</tspan>
        <tspan style="font-family:Arial;font-size:12.6px;font-style:regular;font-weight:regular;" x="20.335106 27.693309" y="-12.976562500000002">−4</tspan>
       </text>
      </g>
     </g>
    </g>
    <g id="xtick_2">
     <g id="line2d_2">
      <g>
       <use style="stroke:#000000;stroke-width:0.8;" x="221.4" xlink:href="#m3c188030be" y="252"/>
      </g>
     </g>
     <g id="text_2">
      <!-- $\mathdefault{10^{-2}}$ -->
      <g transform="translate(203.58 274.0625)">
       <text>
        <tspan style="font-family:Arial;font-size:18px;font-style:regular;font-weight:regular;" x="0 10.010742" y="-0.39887500000000387">10</tspan>
        <tspan style="font-family:Arial;font-size:12.6px;font-style:regular;font-weight:regular;" x="20.335106 27.693309" y="-12.943750000000003">−2</tspan>
       </text>
      </g>
     </g>
    </g>
    <g id="xtick_3">
     <g id="line2d_3">
      <g>
       <use style="stroke:#000000;stroke-width:0.8;" x="322.854545" xlink:href="#m3c188030be" y="252"/>
      </g>
     </g>
     <g id="text_3">
      <!-- $\mathdefault{10^{0}}$ -->
      <g transform="translate(308.724545 274.0625)">
       <text>
        <tspan style="font-family:Arial;font-size:18px;font-style:regular;font-weight:regular;" x="0 10.010742" y="-0.39887500000000387">10</tspan>
        <tspan style="font-family:Arial;font-size:12.6px;font-style:regular;font-weight:regular;" x="20.335106" y="-12.943750000000003">0</tspan>
       </text>
      </g>
     </g>
    </g>
    <g id="text_4">
     <text style="font-family:Arial;font-size:18px;font-style:normal;font-weight:normal;text-anchor:middle;" transform="rotate(-0, 221.4, 294.743438)" x="221.4" y="294.743438">Input (MKKKK) concentration (μM)</text>
    </g>
   </g>
   <g id="matplotlib.axis_2">
    <g id="ytick_1">
     <g id="line2d_4">
      <defs>
       <path d="M 0 0 
L 3.5 0 
" id="m4c54781394" style="stroke:#000000;stroke-width:0.8;"/>
      </defs>
      <g>
       <use style="stroke:#000000;stroke-width:0.8;" x="54" xlink:href="#m4c54781394" y="242.116424"/>
      </g>
     </g>
     <g id="text_5">
      <text style="font-family:Arial;font-size:18px;font-style:normal;font-weight:normal;text-anchor:end;" transform="rotate(-0, 50.5, 248.558455)" x="50.5" y="248.558455">0.0</text>
     </g>
    </g>
    <g id="ytick_2">
     <g id="line2d_5">
      <g>
       <use style="stroke:#000000;stroke-width:0.8;" x="54" xlink:href="#m4c54781394" y="202.581867"/>
      </g>
     </g>
     <g id="text_6">
      <text style="font-family:Arial;font-size:18px;font-style:normal;font-weight:normal;text-anchor:end;" transform="rotate(-0, 50.5, 209.023898)" x="50.5" y="209.023898">0.2</text>
     </g>
    </g>
    <g id="ytick_3">
     <g id="line2d_6">
      <g>
       <use style="stroke:#000000;stroke-width:0.8;" x="54" xlink:href="#m4c54781394" y="163.047309"/>
      </g>
     </g>
     <g id="text_7">
      <text style="font-family:Arial;font-size:18px;font-style:normal;font-weight:normal;text-anchor:end;" transform="rotate(-0, 50.5, 169.48934)" x="50.5" y="169.48934">0.4</text>
     </g>
    </g>
    <g id="ytick_4">
     <g id="line2d_7">
      <g>
       <use style="stroke:#000000;stroke-width:0.8;" x="54" xlink:href="#m4c54781394" y="123.512751"/>
      </g>
     </g>
     <g id="text_8">
      <text style="font-family:Arial;font-size:18px;font-style:normal;font-weight:normal;text-anchor:end;" transform="rotate(-0, 50.5, 129.954783)" x="50.5" y="129.954783">0.6</text>
     </g>
    </g>
    <g id="ytick_5">
     <g id="line2d_8">
      <g>
       <use style="stroke:#000000;stroke-width:0.8;" x="54" xlink:href="#m4c54781394" y="83.978194"/>
      </g>
     </g>
     <g id="text_9">
      <text style="font-family:Arial;font-size:18px;font-style:normal;font-weight:normal;text-anchor:end;" transform="rotate(-0, 50.5, 90.420225)" x="50.5" y="90.420225">0.8</text>
     </g>
    </g>
    <g id="ytick_6">
     <g id="line2d_9">
      <g>
       <use style="stroke:#000000;stroke-width:0.8;" x="54" xlink:href="#m4c54781394" y="44.443636"/>
      </g>
     </g>
     <g id="text_10">
      <text style="font-family:Arial;font-size:18px;font-style:normal;font-weight:normal;text-anchor:end;" transform="rotate(-0, 50.5, 50.885668)" x="50.5" y="50.885668">1.0</text>
     </g>
    </g>
    <g id="text_11">
     <text style="font-family:Arial;font-size:18px;font-style:normal;font-weight:normal;text-anchor:middle;" transform="rotate(-90, 17.9025, 143.28)" x="17.9025" y="143.28">Normalised concentration</text>
    </g>
   </g>
   <g id="line2d_10">
    <path clip-path="url(#p9be1848f3c)" d="M 69.218182 241.956706 
L 72.292562 241.934763 
L 75.366942 241.90954 
L 78.441322 241.880547 
L 81.515702 241.847224 
L 84.590083 241.808923 
L 87.664463 241.764906 
L 90.738843 241.71432 
L 93.813223 241.656191 
L 96.887603 241.589399 
L 99.961983 241.512661 
L 103.036364 241.424503 
L 106.110744 241.323241 
L 109.185124 241.206943 
L 112.259504 241.073398 
L 115.333884 240.920077 
L 118.408264 240.74409 
L 121.482645 240.542136 
L 124.557025 240.310451 
L 127.631405 240.044744 
L 130.705785 239.740134 
L 133.780165 239.391076 
L 136.854545 238.991282 
L 139.928926 238.533635 
L 143.003306 238.010103 
L 146.077686 237.411646 
L 149.152066 236.728119 
L 152.226446 235.948185 
L 155.300826 235.05923 
L 158.375207 234.047287 
L 161.449587 232.896993 
L 164.523967 231.591561 
L 167.598347 230.112806 
L 170.672727 228.441221 
L 173.747107 226.556136 
L 176.821488 224.435954 
L 179.895868 222.058514 
L 182.970248 219.401577 
L 186.044628 216.443455 
L 189.119008 213.163801 
L 192.193388 209.54455 
L 195.267769 205.570998 
L 198.342149 201.232992 
L 201.416529 196.52616 
L 204.490909 191.453119 
L 207.565289 186.024543 
L 210.639669 180.259989 
L 213.71405 174.188343 
L 216.78843 167.847799 
L 219.86281 161.285279 
L 222.93719 154.555275 
L 226.01157 147.718159 
L 229.08595 140.838047 
L 232.160331 133.980408 
L 235.234711 127.209587 
L 238.309091 120.586465 
L 241.383471 114.166418 
L 244.457851 107.997714 
L 247.532231 102.120408 
L 250.606612 96.565746 
L 253.680992 91.356049 
L 256.755372 86.50502 
L 259.829752 82.01838 
L 262.904132 77.894759 
L 265.978512 74.126751 
L 269.052893 70.702035 
L 272.127273 67.6045 
L 275.201653 64.815301 
L 278.276033 62.313829 
L 281.350413 60.078527 
L 284.424793 58.08759 
L 287.499174 56.319499 
L 290.573554 54.753445 
L 293.647934 53.369641 
L 296.722314 52.149492 
L 299.796694 51.075752 
L 302.871074 50.13256 
L 305.945455 49.305448 
L 309.019835 48.581314 
L 312.094215 47.948372 
L 315.168595 47.396067 
L 318.242975 46.914996 
L 321.317355 46.496796 
L 324.391736 46.13419 
L 327.466116 45.820648 
L 330.540496 45.550545 
L 333.614876 45.318958 
L 336.689256 45.121638 
L 339.763636 44.954954 
L 342.838017 44.815792 
L 345.912397 44.701568 
L 348.986777 44.610128 
L 352.061157 44.539755 
L 355.135537 44.489101 
L 358.209917 44.457291 
L 361.284298 44.443636 
L 364.358678 44.447863 
L 367.433058 44.470168 
L 370.507438 44.510863 
L 373.581818 44.570752 
" style="fill:none;stroke:#0066ff;stroke-linecap:square;stroke-width:3;"/>
   </g>
   <g id="line2d_11">
    <path clip-path="url(#p9be1848f3c)" d="M 69.218182 242.116364 
L 72.292562 242.116351 
L 75.366942 242.116335 
L 78.441322 242.116315 
L 81.515702 242.11629 
L 84.590083 242.116257 
L 87.664463 242.116215 
L 90.738843 242.11616 
L 93.813223 242.11609 
L 96.887603 242.115999 
L 99.961983 242.115881 
L 103.036364 242.115728 
L 106.110744 242.115528 
L 109.185124 242.115267 
L 112.259504 242.114926 
L 115.333884 242.11448 
L 118.408264 242.113896 
L 121.482645 242.11313 
L 124.557025 242.112125 
L 127.631405 242.110805 
L 130.705785 242.109073 
L 133.780165 242.106795 
L 136.854545 242.103802 
L 139.928926 242.099867 
L 143.003306 242.094693 
L 146.077686 242.08789 
L 149.152066 242.078947 
L 152.226446 242.067192 
L 155.300826 242.051748 
L 158.375207 242.031465 
L 161.449587 242.004841 
L 164.523967 241.969921 
L 167.598347 241.924157 
L 170.672727 241.864246 
L 173.747107 241.785907 
L 176.821488 241.683618 
L 179.895868 241.55028 
L 182.970248 241.3768 
L 186.044628 241.151599 
L 189.119008 240.860006 
L 192.193388 240.483566 
L 195.267769 239.999249 
L 198.342149 239.378582 
L 201.416529 238.586765 
L 204.490909 237.581827 
L 207.565289 236.313972 
L 210.639669 234.725291 
L 213.71405 232.750087 
L 216.78843 230.316147 
L 219.86281 227.347271 
L 222.93719 223.767379 
L 226.01157 219.506479 
L 229.08595 214.508025 
L 232.160331 208.737605 
L 235.234711 202.191202 
L 238.309091 194.901841 
L 241.383471 186.942782 
L 244.457851 178.42555 
L 247.532231 169.493249 
L 250.606612 160.309455 
L 253.680992 151.044413 
L 256.755372 141.862436 
L 259.829752 132.910763 
L 262.904132 124.311834 
L 265.978512 116.160664 
L 269.052893 108.523723 
L 272.127273 101.441648 
L 275.201653 94.931927 
L 278.276033 88.994557 
L 281.350413 83.614928 
L 284.424793 78.768801 
L 287.499174 74.424631 
L 290.573554 70.54693 
L 293.647934 67.099135 
L 296.722314 64.04276 
L 299.796694 61.341284 
L 302.871074 58.959701 
L 305.945455 56.8647 
L 309.019835 55.025768 
L 312.094215 53.415156 
L 315.168595 52.007391 
L 318.242975 50.779291 
L 321.317355 49.708037 
L 324.391736 48.781717 
L 327.466116 47.978561 
L 330.540496 47.286453 
L 333.614876 46.6924 
L 336.689256 46.185546 
L 339.763636 45.757808 
L 342.838017 45.400039 
L 345.912397 45.106702 
L 348.986777 44.871513 
L 352.061157 44.690168 
L 355.135537 44.557792 
L 358.209917 44.478421 
L 361.284298 44.443636 
L 364.358678 44.451584 
L 367.433058 44.511712 
L 370.507438 44.616371 
L 373.581818 44.77027 
" style="fill:none;stroke:#00aa44;stroke-linecap:square;stroke-width:3;"/>
   </g>
   <g id="line2d_12">
    <path clip-path="url(#p9be1848f3c)" d="M 69.218182 242.115814 
L 72.292562 242.115814 
L 75.366942 242.115814 
L 78.441322 242.115814 
L 81.515702 242.115814 
L 84.590083 242.115814 
L 87.664463 242.115814 
L 90.738843 242.115814 
L 93.813223 242.115814 
L 96.887603 242.115813 
L 99.961983 242.115813 
L 103.036364 242.115812 
L 106.110744 242.115812 
L 109.185124 242.115811 
L 112.259504 242.11581 
L 115.333884 242.115808 
L 118.408264 242.115807 
L 121.482645 242.115804 
L 124.557025 242.115801 
L 127.631405 242.115797 
L 130.705785 242.115791 
L 133.780165 242.115784 
L 136.854545 242.115774 
L 139.928926 242.115761 
L 143.003306 242.115744 
L 146.077686 242.115721 
L 149.152066 242.11569 
L 152.226446 242.115648 
L 155.300826 242.115592 
L 158.375207 242.115515 
L 161.449587 242.115409 
L 164.523967 242.115261 
L 167.598347 242.115052 
L 170.672727 242.114752 
L 173.747107 242.114315 
L 176.821488 242.113668 
L 179.895868 242.112695 
L 182.970248 242.111209 
L 186.044628 242.108909 
L 189.119008 242.105306 
L 192.193388 242.099613 
L 195.267769 242.090559 
L 198.342149 242.076108 
L 201.416529 242.053017 
L 204.490909 242.016178 
L 207.565289 241.957643 
L 210.639669 241.865235 
L 213.71405 241.720636 
L 216.78843 241.496894 
L 219.86281 241.155387 
L 222.93719 240.642456 
L 226.01157 239.886287 
L 229.08595 238.794884 
L 232.160331 237.256506 
L 235.234711 235.143847 
L 238.309091 232.323024 
L 241.383471 228.667362 
L 244.457851 224.074208 
L 247.532231 218.481973 
L 250.606612 211.883348 
L 253.680992 204.331036 
L 256.755372 195.93558 
L 259.829752 186.854784 
L 262.904132 177.277554 
L 265.978512 167.407233 
L 269.052893 157.444165 
L 272.127273 147.573055 
L 275.201653 137.952604 
L 278.276033 128.712653 
L 281.350413 119.950924 
L 284.424793 111.736067 
L 287.499174 104.109129 
L 290.573554 97.088615 
L 293.647934 90.676242 
L 296.722314 84.856607 
L 299.796694 79.606013 
L 302.871074 74.893481 
L 305.945455 70.682764 
L 309.019835 66.936087 
L 312.094215 63.615514 
L 315.168595 60.683127 
L 318.242975 58.10202 
L 321.317355 55.833024 
L 324.391736 53.857809 
L 327.466116 52.135277 
L 330.540496 50.643488 
L 333.614876 49.357558 
L 336.689256 48.256368 
L 339.763636 47.324186 
L 342.838017 46.54246 
L 345.912397 45.900139 
L 348.986777 45.384247 
L 352.061157 44.985917 
L 355.135537 44.69484 
L 358.209917 44.520202 
L 361.284298 44.443636 
L 364.358678 44.461125 
L 367.433058 44.593466 
L 370.507438 44.823682 
L 373.581818 45.161921 
" style="fill:none;stroke:#ff2a2a;stroke-linecap:square;stroke-width:3;"/>
   </g>
   <g id="patch_3">
    <path d="M 54 252 
L 54 34.56 
" style="fill:none;stroke:#000000;stroke-linecap:square;stroke-linejoin:miter;stroke-width:0.8;"/>
   </g>
   <g id="patch_4">
    <path d="M 388.8 252 
L 388.8 34.56 
" style="fill:none;stroke:#000000;stroke-linecap:square;stroke-linejoin:miter;stroke-width:0.8;"/>
   </g>
   <g id="patch_5">
    <path d="M 54 252 
L 388.8 252 
" style="fill:none;stroke:#000000;stroke-linecap:square;stroke-linejoin:miter;stroke-width:0.8;"/>
   </g>
   <g id="patch_6">
    <path d="M 54 34.56 
L 388.8 34.56 
" style="fill:none;stroke:#000000;stroke-linecap:square;stroke-linejoin:miter;stroke-width:0.8;"/>
   </g>
   <g id="legend_1">
    <g id="line2d_13">
     <path d="M 66.6 52.280938 
L 94.6 52.280938 
" style="fill:none;stroke:#0066ff;stroke-linecap:square;stroke-width:3;"/>
    </g>
    <g id="line2d_14"/>
    <g id="text_12">
     <text style="font-family:Arial;font-size:14px;font-style:normal;font-weight:normal;text-anchor:start;" transform="rotate(-0, 105.8, 57.180938)" x="105.8" y="57.180938">MKKKP</text>
    </g>
    <g id="line2d_15">
     <path d="M 66.6 72.084375 
L 94.6 72.084375 
" style="fill:none;stroke:#00aa44;stroke-linecap:square;stroke-width:3;"/>
    </g>
    <g id="line2d_16"/>
    <g id="text_13">
     <text style="font-family:Arial;font-size:14px;font-style:normal;font-weight:normal;text-anchor:start;" transform="rotate(-0, 105.8, 76.984375)" x="105.8" y="76.984375">MKKPP</text>
    </g>
    <g id="line2d_17">
     <path d="M 66.6 91.887813 
L 94.6 91.887813 
" style="fill:none;stroke:#ff2a2a;stroke-linecap:square;stroke-width:3;"/>
    </g>
    <g id="line2d_18"/>
    <g id="text_14">
     <text style="font-family:Arial;font-size:14px;font-style:normal;font-weight:normal;text-anchor:start;" transform="rotate(-0, 105.8, 96.787813)" x="105.8" y="96.787813">MKPP</text>
    </g>
   </g>
  </g>
 </g>
 <defs>
  <clipPath id="p9be1848f3c">
   <rect height="217.44" width="334.8" x="54" y="34.56"/>
  </clipPath>
 </defs>
</svg>
